<?xml version="1.0" encoding="UTF-8" standalone="no"?>
<!-- Created with Inkscape (http://www.inkscape.org/) -->

<svg
   xmlns:dc="http://purl.org/dc/elements/1.1/"
   xmlns:cc="http://creativecommons.org/ns#"
   xmlns:rdf="http://www.w3.org/1999/02/22-rdf-syntax-ns#"
   xmlns:svg="http://www.w3.org/2000/svg"
   xmlns="http://www.w3.org/2000/svg"
   xmlns:sodipodi="http://sodipodi.sourceforge.net/DTD/sodipodi-0.dtd"
   xmlns:inkscape="http://www.inkscape.org/namespaces/inkscape"
   width="698.57123mm"
   height="411.54965mm"
   viewBox="0 0 698.57123 411.54965"
   version="1.1"
   id="svg8"
   inkscape:version="0.92.4 (5da689c313, 2019-01-14)"
   sodipodi:docname="logo_without_font_grey.svg">
  <defs
     id="defs2">
    <clipPath
       id="clipPath831"
       clipPathUnits="userSpaceOnUse">
      <path
         inkscape:connector-curvature="0"
         id="path829"
         d="M 0,3000 H 3000 V 0 H 0 Z" />
    </clipPath>
    <clipPath
       id="clipPath908"
       clipPathUnits="userSpaceOnUse">
      <path
         inkscape:connector-curvature="0"
         id="path906"
         d="M 0,3000 H 3000 V 0 H 0 Z" />
    </clipPath>
  </defs>
  <sodipodi:namedview
     id="base"
     pagecolor="#ffffff"
     bordercolor="#666666"
     borderopacity="1.0"
     inkscape:pageopacity="0.0"
     inkscape:pageshadow="2"
     inkscape:zoom="0.1767767"
     inkscape:cx="-1471.6004"
     inkscape:cy="1390.3775"
     inkscape:document-units="mm"
     inkscape:current-layer="layer1"
     showgrid="false"
     inkscape:window-width="1920"
     inkscape:window-height="1058"
     inkscape:window-x="1912"
     inkscape:window-y="-8"
     inkscape:window-maximized="1" />
  <metadata
     id="metadata5">
    <rdf:RDF>
      <cc:Work
         rdf:about="">
        <dc:format>image/svg+xml</dc:format>
        <dc:type
           rdf:resource="http://purl.org/dc/dcmitype/StillImage" />
        <dc:title></dc:title>
      </cc:Work>
    </rdf:RDF>
  </metadata>
  <g
     inkscape:label="Ebene 1"
     inkscape:groupmode="layer"
     id="layer1"
     transform="translate(-112.49548,-629.09495)">
    <g
       transform="matrix(0.35277777,0,0,-0.35277777,-61.603174,1397.9741)"
       inkscape:label="Logo-PO_2016-02-16_10-gruen-ohneSchrift"
       id="g900"
       style="fill:#606062;fill-opacity:1;stroke:#606062;stroke-opacity:1">
      <g
         id="g902"
         style="fill:#606062;fill-opacity:1;stroke:#606062;stroke-opacity:1">
        <g
           clip-path="url(#clipPath908)"
           id="g904"
           style="fill:#606062;fill-opacity:1;stroke:#606062;stroke-opacity:1">
          <g
             transform="translate(493.508,1665.4316)"
             id="g910"
             style="fill:#606062;fill-opacity:1;stroke:#606062;stroke-opacity:1">
            <path
               inkscape:connector-curvature="0"
               id="path912"
               style="fill:#606062;fill-opacity:1;fill-rule:nonzero;stroke:#606062;stroke-opacity:1"
               d="m 0,0 c 0,0 6.221,5.712 17.886,16.422 1.458,1.338 3.001,2.755 4.628,4.249 0.813,0.747 1.648,1.512 2.503,2.297 0.43,0.394 0.866,0.792 1.307,1.195 0.471,0.413 0.947,0.83 1.429,1.253 3.854,3.375 8.06,7.06 12.606,11.042 4.548,3.965 9.429,8.282 14.649,12.772 5.239,4.351 10.806,8.975 16.687,13.86 2.941,2.44 5.96,4.946 9.056,7.515 3.102,2.562 6.382,5.069 9.684,7.699 6.634,5.221 13.575,10.684 20.812,16.379 7.371,5.517 15.042,11.26 23,17.216 1.996,1.478 3.979,3.01 6.037,4.481 2.062,1.464 4.142,2.942 6.24,4.432 4.195,2.977 8.461,6.006 12.796,9.084 34.796,24.442 75.142,50.455 120.68,76.055 2.838,1.612 5.691,3.233 8.558,4.863 2.905,1.561 5.825,3.131 8.76,4.709 5.87,3.146 11.798,6.324 17.783,9.531 1.495,0.801 2.994,1.605 4.497,2.41 1.522,0.769 3.047,1.541 4.576,2.315 3.058,1.543 6.13,3.093 9.216,4.651 6.178,3.101 12.383,6.28 18.688,9.389 6.353,3.01 12.76,6.046 19.218,9.107 3.228,1.528 6.469,3.063 9.723,4.604 3.26,1.527 6.586,2.947 9.895,4.434 6.63,2.942 13.311,5.906 20.04,8.892 3.347,1.529 6.785,2.888 10.202,4.322 3.423,1.42 6.858,2.844 10.305,4.274 13.725,5.858 27.896,11.162 42.161,16.69 1.788,0.68 3.564,1.397 5.369,2.049 1.806,0.647 3.615,1.295 5.426,1.945 3.623,1.297 7.256,2.599 10.9,3.904 7.298,2.577 14.577,5.326 22.034,7.705 7.426,2.456 14.892,4.925 22.396,7.407 3.737,1.281 7.551,2.366 11.344,3.539 3.799,1.155 7.607,2.312 11.423,3.472 3.816,1.16 7.641,2.321 11.475,3.486 3.834,1.161 7.724,2.172 11.596,3.269 7.754,2.15 15.542,4.309 23.363,6.477 7.869,1.98 15.77,3.969 23.702,5.965 1.983,0.498 3.967,0.997 5.953,1.496 1.983,0.51 3.973,0.997 5.979,1.433 4.003,0.905 8.013,1.812 12.03,2.72 4.015,0.907 8.038,1.816 12.068,2.726 2.015,0.455 4.031,0.91 6.048,1.366 2.029,0.409 4.059,0.819 6.09,1.23 8.125,1.63 16.277,3.266 24.453,4.907 l 3.067,0.613 3.083,0.543 6.173,1.085 c 4.117,0.724 8.24,1.449 12.368,2.175 4.129,0.719 8.263,1.439 12.402,2.16 4.155,0.628 8.315,1.257 12.481,1.887 4.164,0.629 8.333,1.258 12.507,1.888 4.174,0.631 8.347,1.287 12.551,1.778 8.391,1.062 16.802,2.127 25.229,3.193 33.755,3.822 67.861,6.672 102.145,8.204 34.292,1.391 68.726,1.646 103.107,0.748 34.38,-1.139 68.682,-3.431 102.713,-6.837 34.022,-3.547 67.734,-8.391 100.977,-14.164 8.291,-1.552 16.565,-3.101 24.821,-4.647 4.133,-0.733 8.231,-1.629 12.329,-2.499 4.097,-0.87 8.188,-1.738 12.275,-2.605 4.085,-0.868 8.165,-1.734 12.24,-2.599 4.054,-0.957 8.103,-1.912 12.146,-2.866 4.041,-0.96 8.076,-1.919 12.105,-2.876 l 6.037,-1.434 3.015,-0.717 2.997,-0.786 c 7.982,-2.101 15.94,-4.195 23.873,-6.282 l 5.939,-1.57 c 1.966,-0.568 3.931,-1.136 5.894,-1.703 3.924,-1.135 7.842,-2.267 11.753,-3.398 3.909,-1.131 7.812,-2.259 11.706,-3.386 1.952,-0.546 3.888,-1.143 5.815,-1.763 1.929,-0.609 3.857,-1.217 5.783,-1.825 7.701,-2.43 15.371,-4.851 23.01,-7.262 7.577,-2.593 15.122,-5.174 22.634,-7.745 3.747,-1.306 7.513,-2.525 11.22,-3.893 3.704,-1.37 7.401,-2.737 11.088,-4.1 3.686,-1.364 7.363,-2.724 11.032,-4.081 3.661,-1.375 7.342,-2.66 10.944,-4.139 7.228,-2.876 14.42,-5.738 21.574,-8.584 7.181,-2.765 14.174,-5.895 21.186,-8.848 3.498,-1.492 6.987,-2.98 10.465,-4.464 1.739,-0.741 3.475,-1.482 5.209,-2.221 1.731,-0.744 3.433,-1.552 5.147,-2.323 13.673,-6.256 27.241,-12.267 40.346,-18.807 3.291,-1.599 6.572,-3.193 9.84,-4.781 3.262,-1.602 6.544,-3.128 9.733,-4.82 6.409,-3.312 12.772,-6.6 19.087,-9.862 3.149,-1.646 6.316,-3.224 9.415,-4.906 3.091,-1.696 6.171,-3.384 9.238,-5.066 6.13,-3.362 12.212,-6.698 18.242,-10.006 5.977,-3.402 11.852,-6.867 17.7,-10.25 2.92,-1.697 5.828,-3.387 8.722,-5.069 1.445,-0.842 2.888,-1.682 4.327,-2.52 1.42,-0.873 2.836,-1.743 4.248,-2.612 5.649,-3.473 11.245,-6.914 16.786,-10.321 2.767,-1.706 5.521,-3.403 8.261,-5.091 2.699,-1.754 5.385,-3.499 8.056,-5.235 42.872,-27.563 80.558,-55.157 112.891,-80.857 4.026,-3.233 7.988,-6.414 11.883,-9.541 1.947,-1.563 3.877,-3.114 5.791,-4.65 1.909,-1.542 3.743,-3.144 5.592,-4.691 7.364,-6.224 14.462,-12.224 21.282,-17.989 6.676,-5.927 13.079,-11.613 19.198,-17.047 3.043,-2.733 6.071,-5.339 8.923,-7.996 2.846,-2.663 5.622,-5.26 8.325,-7.789 5.402,-5.056 10.516,-9.841 15.328,-14.344 4.733,-4.585 9.109,-8.945 13.212,-12.967 4.093,-4.03 7.881,-7.758 11.351,-11.174 3.454,-3.431 6.477,-6.665 9.244,-9.498 11.002,-11.392 16.87,-17.468 16.87,-17.468 0,0 -6.141,5.797 -17.656,16.665 -2.893,2.7 -6.056,5.785 -9.661,9.05 -3.619,3.247 -7.571,6.792 -11.841,10.623 -4.277,3.822 -8.838,7.965 -13.765,12.315 -5.003,4.264 -10.318,8.796 -15.935,13.584 -2.807,2.393 -5.689,4.85 -8.644,7.37 -2.961,2.512 -6.097,4.969 -9.252,7.549 -6.335,5.122 -12.965,10.482 -19.876,16.07 -7.044,5.415 -14.374,11.051 -21.979,16.898 -1.907,1.452 -3.8,2.957 -5.768,4.401 -1.971,1.438 -3.96,2.889 -5.966,4.352 -4.01,2.925 -8.088,5.9 -12.232,8.924 -33.264,24.017 -71.856,49.613 -115.455,74.874 -2.716,1.591 -5.447,3.191 -8.191,4.799 -2.783,1.542 -5.58,3.091 -8.391,4.649 -5.621,3.108 -11.299,6.247 -17.03,9.416 -1.432,0.791 -2.868,1.585 -4.307,2.381 -1.458,0.761 -2.919,1.524 -4.384,2.288 -2.931,1.526 -5.874,3.06 -8.831,4.6 -5.92,3.067 -11.862,6.212 -17.903,9.291 -6.089,2.982 -12.23,5.989 -18.421,9.02 -3.093,1.515 -6.199,3.036 -9.318,4.564 -3.124,1.514 -6.315,2.923 -9.487,4.398 -6.357,2.92 -12.762,5.863 -19.214,8.827 -3.207,1.518 -6.507,2.868 -9.784,4.294 -3.284,1.411 -6.579,2.828 -9.885,4.249 -13.159,5.827 -26.763,11.11 -40.448,16.624 -1.715,0.678 -3.418,1.393 -5.15,2.044 -1.734,0.646 -3.471,1.293 -5.21,1.942 -3.477,1.296 -6.965,2.596 -10.462,3.9 -7.006,2.575 -13.988,5.324 -21.152,7.706 -7.13,2.462 -14.299,4.937 -21.505,7.425 -3.586,1.284 -7.252,2.374 -10.895,3.553 -3.649,1.161 -7.307,2.324 -10.973,3.491 -3.665,1.166 -7.339,2.335 -11.021,3.507 -3.682,1.169 -7.422,2.19 -11.142,3.295 -7.451,2.171 -14.934,4.352 -22.449,6.542 -7.564,2.007 -15.16,4.022 -22.784,6.046 -1.906,0.505 -3.813,1.012 -5.721,1.519 -1.906,0.517 -3.82,1.012 -5.749,1.457 -3.849,0.922 -7.705,1.845 -11.568,2.771 -3.861,0.925 -7.729,1.852 -11.604,2.781 l -5.815,1.394 -5.858,1.261 c -7.816,1.674 -15.657,3.354 -23.521,5.039 l -2.95,0.631 -2.967,0.561 -5.94,1.122 c -3.962,0.75 -7.929,1.5 -11.902,2.251 -3.972,0.747 -7.949,1.493 -11.932,2.242 -4,0.656 -8.005,1.314 -12.014,1.973 -4.008,0.658 -8.021,1.318 -12.039,1.978 -4.017,0.662 -8.033,1.349 -12.082,1.873 -8.079,1.129 -16.177,2.261 -24.291,3.395 -32.509,4.103 -65.366,7.282 -98.412,9.19 -33.055,1.766 -66.262,2.443 -99.431,2.011 -33.17,-0.673 -66.278,-2.454 -99.138,-5.31 -32.853,-2.997 -65.42,-7.25 -97.547,-12.397 -8.013,-1.393 -16.01,-2.784 -23.989,-4.171 -3.995,-0.652 -7.958,-1.467 -11.919,-2.256 -3.96,-0.788 -7.916,-1.574 -11.867,-2.36 -3.95,-0.784 -7.894,-1.567 -11.833,-2.349 -3.921,-0.873 -7.837,-1.745 -11.747,-2.615 -3.907,-0.875 -7.809,-1.748 -11.706,-2.621 l -5.838,-1.306 -2.916,-0.652 -2.898,-0.721 c -7.722,-1.926 -15.42,-3.846 -23.093,-5.759 l -5.746,-1.438 -5.702,-1.57 c -3.797,-1.045 -7.588,-2.089 -11.372,-3.13 -3.783,-1.04 -7.559,-2.079 -11.328,-3.115 -1.888,-0.501 -3.761,-1.053 -5.626,-1.628 -1.868,-0.563 -3.734,-1.126 -5.598,-1.688 -7.453,-2.246 -14.877,-4.483 -22.271,-6.71 -7.335,-2.406 -14.64,-4.801 -21.912,-7.186 -3.628,-1.212 -7.274,-2.337 -10.863,-3.61 -3.588,-1.275 -7.167,-2.548 -10.738,-3.817 -3.57,-1.268 -7.131,-2.532 -10.683,-3.794 -3.546,-1.279 -7.112,-2.468 -10.6,-3.852 -7.003,-2.682 -13.97,-5.35 -20.9,-8.005 -6.957,-2.57 -13.733,-5.506 -20.527,-8.263 -3.391,-1.395 -6.771,-2.785 -10.142,-4.171 -1.685,-0.692 -3.368,-1.384 -5.048,-2.074 -1.678,-0.695 -3.327,-1.454 -4.989,-2.176 -13.252,-5.863 -26.407,-11.477 -39.114,-17.622 -3.192,-1.5 -6.372,-2.994 -9.542,-4.483 -3.163,-1.503 -6.347,-2.929 -9.439,-4.523 -6.217,-3.112 -12.39,-6.201 -18.515,-9.267 -3.055,-1.546 -6.128,-3.024 -9.134,-4.608 -3,-1.596 -5.988,-3.185 -8.964,-4.768 -5.949,-3.163 -11.851,-6.301 -17.704,-9.412 -5.801,-3.205 -11.504,-6.473 -17.181,-9.659 -2.836,-1.598 -5.658,-3.189 -8.468,-4.774 -1.404,-0.792 -2.805,-1.584 -4.202,-2.373 -1.379,-0.824 -2.754,-1.645 -4.125,-2.465 -5.486,-3.277 -10.921,-6.523 -16.302,-9.737 -2.688,-1.608 -5.363,-3.208 -8.025,-4.8 -2.622,-1.657 -5.231,-3.306 -7.827,-4.946 -41.653,-26.026 -78.311,-52.146 -109.793,-76.511 -3.92,-3.065 -7.778,-6.081 -11.571,-9.046 -1.896,-1.482 -3.776,-2.951 -5.64,-4.408 -1.859,-1.461 -3.646,-2.984 -5.448,-4.453 -7.175,-5.906 -14.092,-11.6 -20.738,-17.071 -6.508,-5.631 -12.75,-11.033 -18.716,-16.195 -2.967,-2.597 -5.92,-5.068 -8.702,-7.595 -2.777,-2.533 -5.484,-5.002 -8.121,-7.408 -5.272,-4.805 -10.262,-9.354 -14.958,-13.634 -4.511,-4.319 -8.74,-8.368 -12.675,-12.135 -3.925,-3.762 -7.557,-7.243 -10.884,-10.432 -0.416,-0.399 -0.827,-0.792 -1.234,-1.182 -0.417,-0.418 -0.83,-0.832 -1.238,-1.24 -0.817,-0.824 -1.615,-1.628 -2.393,-2.411 -1.556,-1.567 -3.032,-3.054 -4.427,-4.459 C 75.266,-66.085 69.315,-72.079 69.315,-72.079 Z" />
          </g>
          <g
             transform="translate(578.8202,1506.3878)"
             id="g914"
             style="fill:#606062;fill-opacity:1;stroke:#606062;stroke-opacity:1">
            <path
               inkscape:connector-curvature="0"
               id="path916"
               style="fill:#606062;fill-opacity:1;fill-rule:nonzero;stroke:#606062;stroke-opacity:1"
               d="M 0,0 H 1860.582" />
          </g>
          <g
             transform="translate(578.8202,1556.3878)"
             id="g918"
             style="fill:#606062;fill-opacity:1;stroke:#606062;stroke-opacity:1">
            <path
               inkscape:connector-curvature="0"
               id="path920"
               style="fill:#606062;fill-opacity:1;fill-rule:nonzero;stroke:#606062;stroke-opacity:1"
               d="M 0,0 1860.582,-50 0,-100 Z" />
          </g>
          <g
             transform="translate(578.8202,1459.6199)"
             id="g922"
             style="fill:#606062;fill-opacity:1;stroke:#606062;stroke-opacity:1" />
          <g
             transform="translate(578.8202,1459.6199)"
             id="g926"
             style="fill:#606062;fill-opacity:1;stroke:#606062;stroke-opacity:1">
            <path
               inkscape:connector-curvature="0"
               id="path928"
               style="fill:#606062;stroke:#606062;stroke-width:1;stroke-linecap:butt;stroke-linejoin:miter;stroke-miterlimit:10;stroke-dasharray:none;stroke-opacity:1;fill-opacity:1"
               d="M 0.54275971,-3.7040243 36.843,-446.673 77.11033,6.1159612 Z"
               sodipodi:nodetypes="cccc" />
          </g>
          <g
             transform="translate(1214.4918,1478.3529)"
             id="g930"
             style="fill:#606062;fill-opacity:1;stroke:#606062;stroke-opacity:1" />
          <g
             transform="translate(1214.4918,1478.3529)"
             id="g934"
             style="fill:#606062;fill-opacity:1;stroke:#606062;stroke-opacity:1">
            <path
               inkscape:connector-curvature="0"
               id="path936"
               style="fill:#606062;stroke:#606062;stroke-width:1;stroke-linecap:butt;stroke-linejoin:miter;stroke-miterlimit:10;stroke-dasharray:none;stroke-opacity:1;fill-opacity:1"
               d="M 0,0 32.462,-446.659 67.817,-0.22 Z" />
          </g>
          <g
             transform="translate(1533,2135)"
             id="g938"
             style="fill:#606062;fill-opacity:1;stroke:#606062;stroke-opacity:1">
            <path
               inkscape:connector-curvature="0"
               id="path940"
               style="fill:#606062;fill-opacity:1;fill-rule:nonzero;stroke:#606062;stroke-opacity:1"
               d="m 0,0 c 0,-24.301 -19.699,-44 -44,-44 -24.301,0 -44,19.699 -44,44 0,24.301 19.699,44 44,44 C -19.699,44 0,24.301 0,0" />
          </g>
          <g
             transform="translate(1533,2135)"
             id="g942"
             style="fill:#606062;fill-opacity:1;stroke:#606062;stroke-opacity:1">
            <path
               inkscape:connector-curvature="0"
               id="path944"
               style="fill:#606062;stroke:#606062;stroke-width:1;stroke-linecap:butt;stroke-linejoin:miter;stroke-miterlimit:10;stroke-dasharray:none;stroke-opacity:1;fill-opacity:1"
               d="m 0,0 c 0,-24.301 -19.699,-44 -44,-44 -24.301,0 -44,19.699 -44,44 0,24.301 19.699,44 44,44 C -19.699,44 0,24.301 0,0 Z" />
          </g>
        </g>
      </g>
    </g>
    <path
       style="fill:#606062;fill-opacity:1;stroke-width:2;stroke:#606062;stroke-opacity:1"
       d="m 162.15694,1522.6296 c -2.9582,-15.2233 -45.78344,-554.44463 -44.15885,-556.01319 0.94999,-0.91724 23.06588,-2.31398 49.14641,-3.10387 l 47.41914,-1.43617 -0.9615,6.77661 c -0.52883,3.72713 -11.74444,129.17662 -24.92359,278.77662 -27.69494,314.3727 -24.76805,284.024 -26.52161,275 z"
       id="path969"
       inkscape:connector-curvature="0"
       transform="matrix(0.26458333,0,0,0.26458333,112.49548,629.09495)" />
    <path
       style="fill:#606062;fill-opacity:1;stroke-width:2;stroke:#606062;stroke-opacity:1"
       d="m 983.53821,1221.0287 c -11.10293,-152.5695 -19.93196,-277.72008 -19.62008,-278.11237 0.31189,-0.3923 19.5211,-1.20073 42.68717,-1.79652 l 42.12,-1.08325 0.084,4.79651 c 0.1804,10.24863 -42.8167,550.87683 -43.917,552.19563 -0.6421,0.7696 -10.25157,-123.4304 -21.35449,-276 z"
       id="path971"
       inkscape:connector-curvature="0"
       transform="matrix(0.26458333,0,0,0.26458333,112.49548,629.09495)" />
  </g>
</svg>
