<?xml version="1.0" encoding="UTF-8" standalone="no"?>
<!-- Created with Inkscape (http://www.inkscape.org/) -->

<svg
   xmlns:dc="http://purl.org/dc/elements/1.1/"
   xmlns:cc="http://creativecommons.org/ns#"
   xmlns:rdf="http://www.w3.org/1999/02/22-rdf-syntax-ns#"
   xmlns:svg="http://www.w3.org/2000/svg"
   xmlns="http://www.w3.org/2000/svg"
   xmlns:sodipodi="http://sodipodi.sourceforge.net/DTD/sodipodi-0.dtd"
   xmlns:inkscape="http://www.inkscape.org/namespaces/inkscape"
   width="707.28918mm"
   height="411.54965mm"
   viewBox="0 0 707.28918 411.54965"
   version="1.1"
   id="svg8"
   inkscape:version="0.92.4 (5da689c313, 2019-01-14)"
   sodipodi:docname="logo_with_font.svg">
  <defs
     id="defs2">
    <clipPath
       id="clipPath4237"
       clipPathUnits="userSpaceOnUse">
      <path
         inkscape:connector-curvature="0"
         id="path4235"
         d="M 0,3000 H 3000 V 0 H 0 Z" />
    </clipPath>
    <clipPath
       id="clipPath4261"
       clipPathUnits="userSpaceOnUse">
      <path
         inkscape:connector-curvature="0"
         id="path4259"
         d="M 0,3000 H 3000 V 0 H 0 Z" />
    </clipPath>
    <clipPath
       id="clipPath4277"
       clipPathUnits="userSpaceOnUse">
      <path
         inkscape:connector-curvature="0"
         id="path4275"
         d="M 0,3000 H 3000 V 0 H 0 Z" />
    </clipPath>
    <clipPath
       id="clipPath4305"
       clipPathUnits="userSpaceOnUse">
      <path
         inkscape:connector-curvature="0"
         id="path4303"
         d="M 0,3000 H 3000 V 0 H 0 Z" />
    </clipPath>
    <clipPath
       id="clipPath4321"
       clipPathUnits="userSpaceOnUse">
      <path
         inkscape:connector-curvature="0"
         id="path4319"
         d="M 0,3000 H 3000 V 0 H 0 Z" />
    </clipPath>
  </defs>
  <sodipodi:namedview
     id="base"
     pagecolor="#ffffff"
     bordercolor="#666666"
     borderopacity="1.0"
     inkscape:pageopacity="0.0"
     inkscape:pageshadow="2"
     inkscape:zoom="0.35"
     inkscape:cx="1336.6095"
     inkscape:cy="892.01731"
     inkscape:document-units="mm"
     inkscape:current-layer="layer1"
     showgrid="false"
     inkscape:window-width="1858"
     inkscape:window-height="1058"
     inkscape:window-x="3894"
     inkscape:window-y="-8"
     inkscape:window-maximized="1" />
  <metadata
     id="metadata5">
    <rdf:RDF>
      <cc:Work
         rdf:about="">
        <dc:format>image/svg+xml</dc:format>
        <dc:type
           rdf:resource="http://purl.org/dc/dcmitype/StillImage" />
        <dc:title></dc:title>
      </cc:Work>
    </rdf:RDF>
  </metadata>
  <g
     inkscape:label="Ebene 1"
     inkscape:groupmode="layer"
     id="layer1"
     transform="translate(376.70115,56.94149)">
    <g
       transform="matrix(0.35277777,0,0,-0.35277777,-550.7998,711.93766)"
       inkscape:label="Logo-PO_2016-02-16_10-gruen"
       id="g4229">
      <g
         id="g4231">
        <g
           clip-path="url(#clipPath4237)"
           id="g4233">
          <g
             transform="translate(493.508,1665.4316)"
             id="g4239">
            <path
               inkscape:connector-curvature="0"
               id="path4241"
               style="fill:#80cc28;fill-opacity:1;fill-rule:nonzero;stroke:none"
               d="m 0,0 c 0,0 6.221,5.712 17.886,16.422 1.458,1.338 3.001,2.755 4.628,4.249 0.813,0.747 1.648,1.512 2.503,2.297 0.43,0.394 0.866,0.792 1.307,1.195 0.471,0.413 0.947,0.83 1.429,1.253 3.854,3.375 8.06,7.06 12.606,11.042 4.548,3.965 9.429,8.282 14.649,12.772 5.239,4.351 10.806,8.975 16.687,13.86 2.941,2.44 5.96,4.946 9.056,7.515 3.102,2.562 6.382,5.069 9.684,7.699 6.634,5.221 13.575,10.684 20.812,16.379 7.371,5.517 15.042,11.26 23,17.216 1.996,1.478 3.979,3.01 6.037,4.481 2.062,1.464 4.142,2.942 6.24,4.432 4.195,2.977 8.461,6.006 12.796,9.084 34.796,24.442 75.142,50.455 120.68,76.055 2.838,1.612 5.691,3.233 8.558,4.863 2.905,1.561 5.825,3.131 8.76,4.709 5.87,3.146 11.798,6.324 17.783,9.531 1.495,0.801 2.994,1.605 4.497,2.41 1.522,0.769 3.047,1.541 4.576,2.315 3.058,1.543 6.13,3.093 9.216,4.651 6.178,3.101 12.383,6.28 18.688,9.389 6.353,3.01 12.76,6.046 19.218,9.107 3.228,1.528 6.469,3.063 9.723,4.604 3.26,1.527 6.586,2.947 9.895,4.434 6.63,2.942 13.311,5.906 20.04,8.892 3.347,1.529 6.785,2.888 10.202,4.322 3.423,1.42 6.858,2.844 10.305,4.274 13.725,5.858 27.896,11.162 42.161,16.69 1.788,0.68 3.564,1.397 5.369,2.049 1.806,0.647 3.615,1.295 5.426,1.945 3.623,1.297 7.256,2.599 10.9,3.904 7.298,2.577 14.577,5.326 22.034,7.705 7.426,2.456 14.892,4.925 22.396,7.407 3.737,1.281 7.551,2.366 11.344,3.539 3.799,1.155 7.607,2.312 11.423,3.472 3.816,1.16 7.641,2.321 11.475,3.486 3.834,1.161 7.724,2.172 11.596,3.269 7.754,2.15 15.542,4.309 23.363,6.477 7.869,1.98 15.77,3.969 23.702,5.965 1.983,0.498 3.967,0.997 5.953,1.496 1.983,0.51 3.973,0.997 5.979,1.433 4.003,0.905 8.013,1.812 12.03,2.72 4.015,0.907 8.038,1.816 12.068,2.726 2.015,0.455 4.031,0.91 6.048,1.366 2.029,0.409 4.059,0.819 6.09,1.23 8.125,1.63 16.277,3.266 24.453,4.907 l 3.067,0.613 3.083,0.543 6.173,1.085 c 4.117,0.724 8.24,1.449 12.368,2.175 4.129,0.719 8.263,1.439 12.402,2.16 4.155,0.628 8.315,1.257 12.481,1.887 4.164,0.629 8.333,1.258 12.507,1.888 4.174,0.631 8.347,1.287 12.551,1.778 8.391,1.062 16.802,2.127 25.229,3.193 33.755,3.822 67.861,6.672 102.145,8.204 34.292,1.391 68.726,1.646 103.107,0.748 34.38,-1.139 68.682,-3.431 102.713,-6.837 34.022,-3.547 67.734,-8.391 100.977,-14.164 8.291,-1.552 16.565,-3.101 24.821,-4.647 4.133,-0.733 8.231,-1.629 12.329,-2.499 4.097,-0.87 8.188,-1.738 12.275,-2.605 4.085,-0.868 8.165,-1.734 12.24,-2.599 4.054,-0.957 8.103,-1.912 12.146,-2.866 4.041,-0.96 8.076,-1.919 12.105,-2.876 l 6.037,-1.434 3.015,-0.717 2.997,-0.786 c 7.982,-2.101 15.94,-4.195 23.873,-6.282 l 5.939,-1.57 c 1.966,-0.568 3.931,-1.136 5.894,-1.703 3.924,-1.135 7.842,-2.267 11.753,-3.398 3.909,-1.131 7.812,-2.259 11.706,-3.386 1.952,-0.546 3.888,-1.143 5.815,-1.763 1.929,-0.609 3.857,-1.217 5.783,-1.825 7.701,-2.43 15.371,-4.851 23.01,-7.262 7.577,-2.593 15.122,-5.174 22.634,-7.745 3.747,-1.306 7.513,-2.525 11.22,-3.893 3.704,-1.37 7.401,-2.737 11.088,-4.1 3.686,-1.364 7.363,-2.724 11.032,-4.081 3.661,-1.375 7.342,-2.66 10.944,-4.139 7.228,-2.876 14.42,-5.738 21.574,-8.584 7.181,-2.765 14.174,-5.895 21.186,-8.848 3.498,-1.492 6.987,-2.98 10.465,-4.464 1.739,-0.741 3.475,-1.482 5.209,-2.221 1.731,-0.744 3.433,-1.552 5.147,-2.323 13.673,-6.256 27.241,-12.267 40.346,-18.807 3.291,-1.599 6.572,-3.193 9.84,-4.781 3.262,-1.602 6.544,-3.128 9.733,-4.82 6.409,-3.312 12.772,-6.6 19.087,-9.862 3.149,-1.646 6.316,-3.224 9.415,-4.906 3.091,-1.696 6.171,-3.384 9.238,-5.066 6.13,-3.362 12.212,-6.698 18.242,-10.006 5.977,-3.402 11.852,-6.867 17.7,-10.25 2.92,-1.697 5.828,-3.387 8.722,-5.069 1.445,-0.842 2.888,-1.682 4.327,-2.52 1.42,-0.873 2.836,-1.743 4.248,-2.612 5.649,-3.473 11.245,-6.914 16.786,-10.321 2.767,-1.706 5.521,-3.403 8.261,-5.091 2.699,-1.754 5.385,-3.499 8.056,-5.235 42.872,-27.563 80.558,-55.157 112.891,-80.857 4.026,-3.233 7.988,-6.414 11.883,-9.541 1.947,-1.563 3.877,-3.114 5.791,-4.65 1.909,-1.542 3.743,-3.144 5.592,-4.691 7.364,-6.224 14.462,-12.224 21.282,-17.989 6.676,-5.927 13.079,-11.613 19.198,-17.047 3.043,-2.733 6.071,-5.339 8.923,-7.996 2.846,-2.663 5.622,-5.26 8.325,-7.789 5.402,-5.056 10.516,-9.841 15.328,-14.344 4.733,-4.585 9.109,-8.945 13.212,-12.967 4.093,-4.03 7.881,-7.758 11.351,-11.174 3.454,-3.431 6.477,-6.665 9.244,-9.498 11.002,-11.392 16.87,-17.468 16.87,-17.468 0,0 -6.141,5.797 -17.656,16.665 -2.893,2.7 -6.056,5.785 -9.661,9.05 -3.619,3.247 -7.571,6.792 -11.841,10.623 -4.277,3.822 -8.838,7.965 -13.765,12.315 -5.003,4.264 -10.318,8.796 -15.935,13.584 -2.807,2.393 -5.689,4.85 -8.644,7.37 -2.961,2.512 -6.097,4.969 -9.252,7.549 -6.335,5.122 -12.965,10.482 -19.876,16.07 -7.044,5.415 -14.374,11.051 -21.979,16.898 -1.907,1.452 -3.8,2.957 -5.768,4.401 -1.971,1.438 -3.96,2.889 -5.966,4.352 -4.01,2.925 -8.088,5.9 -12.232,8.924 -33.264,24.017 -71.856,49.613 -115.455,74.874 -2.716,1.591 -5.447,3.191 -8.191,4.799 -2.783,1.542 -5.58,3.091 -8.391,4.649 -5.621,3.108 -11.299,6.247 -17.03,9.416 -1.432,0.791 -2.868,1.585 -4.307,2.381 -1.458,0.761 -2.919,1.524 -4.384,2.288 -2.931,1.526 -5.874,3.06 -8.831,4.6 -5.92,3.067 -11.862,6.212 -17.903,9.291 -6.089,2.982 -12.23,5.989 -18.421,9.02 -3.093,1.515 -6.199,3.036 -9.318,4.564 -3.124,1.514 -6.315,2.923 -9.487,4.398 -6.357,2.92 -12.762,5.863 -19.214,8.827 -3.207,1.518 -6.507,2.868 -9.784,4.294 -3.284,1.411 -6.579,2.828 -9.885,4.249 -13.159,5.827 -26.763,11.11 -40.448,16.624 -1.715,0.678 -3.418,1.393 -5.15,2.044 -1.734,0.646 -3.471,1.293 -5.21,1.942 -3.477,1.296 -6.965,2.596 -10.462,3.9 -7.006,2.575 -13.988,5.324 -21.152,7.706 -7.13,2.462 -14.299,4.937 -21.505,7.425 -3.586,1.284 -7.252,2.374 -10.895,3.553 -3.649,1.161 -7.307,2.324 -10.973,3.491 -3.665,1.166 -7.339,2.335 -11.021,3.507 -3.682,1.169 -7.422,2.19 -11.142,3.295 -7.451,2.171 -14.934,4.352 -22.449,6.542 -7.564,2.007 -15.16,4.022 -22.784,6.046 -1.906,0.505 -3.813,1.012 -5.721,1.519 -1.906,0.517 -3.82,1.012 -5.749,1.457 -3.849,0.922 -7.705,1.845 -11.568,2.771 -3.861,0.925 -7.729,1.852 -11.604,2.781 l -5.815,1.394 -5.858,1.261 c -7.816,1.674 -15.657,3.354 -23.521,5.039 l -2.95,0.631 -2.967,0.561 -5.94,1.122 c -3.962,0.75 -7.929,1.5 -11.902,2.251 -3.972,0.747 -7.949,1.493 -11.932,2.242 -4,0.656 -8.005,1.314 -12.014,1.973 -4.008,0.658 -8.021,1.318 -12.039,1.978 -4.017,0.662 -8.033,1.349 -12.082,1.873 -8.079,1.129 -16.177,2.261 -24.291,3.395 -32.509,4.103 -65.366,7.282 -98.412,9.19 -33.055,1.766 -66.262,2.443 -99.431,2.011 -33.17,-0.673 -66.278,-2.454 -99.138,-5.31 -32.853,-2.997 -65.42,-7.25 -97.547,-12.397 -8.013,-1.393 -16.01,-2.784 -23.989,-4.171 -3.995,-0.652 -7.958,-1.467 -11.919,-2.256 -3.96,-0.788 -7.916,-1.574 -11.867,-2.36 -3.95,-0.784 -7.894,-1.567 -11.833,-2.349 -3.921,-0.873 -7.837,-1.745 -11.747,-2.615 -3.907,-0.875 -7.809,-1.748 -11.706,-2.621 l -5.838,-1.306 -2.916,-0.652 -2.898,-0.721 c -7.722,-1.926 -15.42,-3.846 -23.093,-5.759 l -5.746,-1.438 -5.702,-1.57 c -3.797,-1.045 -7.588,-2.089 -11.372,-3.13 -3.783,-1.04 -7.559,-2.079 -11.328,-3.115 -1.888,-0.501 -3.761,-1.053 -5.626,-1.628 -1.868,-0.563 -3.734,-1.126 -5.598,-1.688 -7.453,-2.246 -14.877,-4.483 -22.271,-6.71 -7.335,-2.406 -14.64,-4.801 -21.912,-7.186 -3.628,-1.212 -7.274,-2.337 -10.863,-3.61 -3.588,-1.275 -7.167,-2.548 -10.738,-3.817 -3.57,-1.268 -7.131,-2.532 -10.683,-3.794 -3.546,-1.279 -7.112,-2.468 -10.6,-3.852 -7.003,-2.682 -13.97,-5.35 -20.9,-8.005 -6.957,-2.57 -13.733,-5.506 -20.527,-8.263 -3.391,-1.395 -6.771,-2.785 -10.142,-4.171 -1.685,-0.692 -3.368,-1.384 -5.048,-2.074 -1.678,-0.695 -3.327,-1.454 -4.989,-2.176 -13.252,-5.863 -26.407,-11.477 -39.114,-17.622 -3.192,-1.5 -6.372,-2.994 -9.542,-4.483 -3.163,-1.503 -6.347,-2.929 -9.439,-4.523 -6.217,-3.112 -12.39,-6.201 -18.515,-9.267 -3.055,-1.546 -6.128,-3.024 -9.134,-4.608 -3,-1.596 -5.988,-3.185 -8.964,-4.768 -5.949,-3.163 -11.851,-6.301 -17.704,-9.412 -5.801,-3.205 -11.504,-6.473 -17.181,-9.659 -2.836,-1.598 -5.658,-3.189 -8.468,-4.774 -1.404,-0.792 -2.805,-1.584 -4.202,-2.373 -1.379,-0.824 -2.754,-1.645 -4.125,-2.465 -5.486,-3.277 -10.921,-6.523 -16.302,-9.737 -2.688,-1.608 -5.363,-3.208 -8.025,-4.8 -2.622,-1.657 -5.231,-3.306 -7.827,-4.946 -41.653,-26.026 -78.311,-52.146 -109.793,-76.511 -3.92,-3.065 -7.778,-6.081 -11.571,-9.046 -1.896,-1.482 -3.776,-2.951 -5.64,-4.408 -1.859,-1.461 -3.646,-2.984 -5.448,-4.453 -7.175,-5.906 -14.092,-11.6 -20.738,-17.071 -6.508,-5.631 -12.75,-11.033 -18.716,-16.195 -2.967,-2.597 -5.92,-5.068 -8.702,-7.595 -2.777,-2.533 -5.484,-5.002 -8.121,-7.408 -5.272,-4.805 -10.262,-9.354 -14.958,-13.634 -4.511,-4.319 -8.74,-8.368 -12.675,-12.135 -3.925,-3.762 -7.557,-7.243 -10.884,-10.432 -0.416,-0.399 -0.827,-0.792 -1.234,-1.182 -0.417,-0.418 -0.83,-0.832 -1.238,-1.24 -0.817,-0.824 -1.615,-1.628 -2.393,-2.411 -1.556,-1.567 -3.032,-3.054 -4.427,-4.459 C 75.266,-66.085 69.315,-72.079 69.315,-72.079 Z" />
          </g>
          <g
             transform="translate(578.8202,1506.3878)"
             id="g4243">
            <path
               inkscape:connector-curvature="0"
               id="path4245"
               style="fill:#80cc28;fill-opacity:1;fill-rule:nonzero;stroke:none"
               d="M 0,0 H 1860.582" />
          </g>
          <g
             transform="translate(578.8202,1556.3878)"
             id="g4247">
            <path
               inkscape:connector-curvature="0"
               id="path4249"
               style="fill:#80cc28;fill-opacity:1;fill-rule:nonzero;stroke:none"
               d="M 0,0 1860.582,-50 0,-100 Z" />
          </g>
        </g>
      </g>
      <text
         id="text4253"
         style="font-variant:normal;font-weight:normal;font-stretch:normal;font-size:120px;font-family:'Eras Light ITC';-inkscape-font-specification:ErasITC-Light;writing-mode:lr-tb;fill:#80cc28;fill-opacity:1;fill-rule:nonzero;stroke:none"
         transform="matrix(1,0,0,-1,1554.0557,1292.4512)">
        <tspan
           id="tspan4251"
           y="0"
           x="0">C</tspan>
      </text>
      <g
         id="g4255">
        <g
           clip-path="url(#clipPath4261)"
           id="g4257">
          <g
             transform="translate(1600.0884,1294.8535)"
             id="g4263">
            <path
               inkscape:connector-curvature="0"
               id="path4265"
               style="fill:none;stroke:#80cc28;stroke-width:1;stroke-linecap:butt;stroke-linejoin:miter;stroke-miterlimit:10;stroke-dasharray:none;stroke-opacity:1"
               d="m 0,0 c -5.241,0 -10.07,0.829 -14.488,2.49 -4.419,1.66 -8.232,4.092 -11.438,7.295 -3.206,3.202 -5.592,7.178 -7.156,11.924 -1.564,4.746 -2.345,9.735 -2.345,14.971 0,5.428 0.948,10.693 2.844,15.791 1.896,5.097 4.624,9.375 8.182,12.832 3.558,3.457 7.664,5.967 12.317,7.529 4.653,1.562 9.502,2.344 14.547,2.344 2.893,0 5.894,-0.235 9.003,-0.703 3.108,-0.469 6.813,-1.407 11.115,-2.813 -0.274,1.758 -0.45,3.437 -0.528,5.039 -2.578,0.547 -4.639,0.938 -6.181,1.172 -1.544,0.234 -3.516,0.448 -5.918,0.645 -2.403,0.195 -4.64,0.293 -6.709,0.293 -6.134,0 -11.905,-0.909 -17.315,-2.725 -5.41,-1.816 -10.049,-4.609 -13.916,-8.379 -3.867,-3.77 -6.807,-8.506 -8.818,-14.209 -2.012,-5.704 -3.018,-11.601 -3.018,-17.695 0,-5.47 0.859,-10.685 2.578,-15.645 1.719,-4.961 4.414,-9.249 8.086,-12.861 3.672,-3.613 8.066,-6.338 13.184,-8.174 5.117,-1.836 10.527,-2.754 16.23,-2.754 2.773,0 5.908,0.196 9.405,0.586 3.495,0.391 7.236,1.074 11.22,2.051 C 21.076,0.84 21.33,2.44 21.643,3.809 13.666,1.269 6.452,0 0,0 Z" />
          </g>
        </g>
      </g>
      <text
         id="text4269"
         style="font-variant:normal;font-weight:normal;font-stretch:normal;font-size:120px;font-family:'Eras Light ITC';-inkscape-font-specification:ErasITC-Light;writing-mode:lr-tb;fill:#231f20;fill-opacity:1;fill-rule:nonzero;stroke:none"
         transform="matrix(1,0,0,-1,1627.2979,1292.4512)">
        <tspan
           id="tspan4267"
           sodipodi:role="line"
           y="0"
           x="0 37.68 97.559998 127.56">raft</tspan>
      </text>
      <g
         id="g4271">
        <g
           clip-path="url(#clipPath4277)"
           id="g4273">
          <g
             transform="translate(1636.6855,1292.5098)"
             id="g4279">
            <path
               inkscape:connector-curvature="0"
               id="path4281"
               style="fill:none;stroke:#231f20;stroke-width:1;stroke-linecap:butt;stroke-linejoin:miter;stroke-miterlimit:10;stroke-dasharray:none;stroke-opacity:1"
               d="m 0,0 c 0.549,0 1.335,-0.021 2.356,-0.059 0,4.14 0.076,10.527 0.226,19.161 0.111,6.406 0.375,12.108 0.787,17.109 0.273,3.202 0.801,5.918 1.583,8.144 0.626,1.914 1.564,3.721 2.815,5.42 1.25,1.7 2.531,3.038 3.84,4.014 1.31,0.976 2.717,1.719 4.222,2.227 1.505,0.506 3.195,0.761 5.072,0.761 1.915,0 4.182,-0.332 6.801,-0.996 -0.157,1.327 -0.234,2.657 -0.234,3.985 -1.641,0.389 -3.262,0.586 -4.864,0.586 -2.187,0 -4.286,-0.245 -6.297,-0.733 C 14.294,59.13 12.537,58.427 11.033,57.51 9.53,56.592 8.211,55.449 7.079,54.082 5.945,52.714 4.715,50.703 3.388,48.047 L 3.913,59.121 C 3.17,59.082 2.447,59.063 1.744,59.063 c -0.664,0 -1.387,0.019 -2.169,0.058 l 0.059,-5.273 c 0,-5.43 -0.215,-13.711 -0.645,-24.844 C -1.44,17.871 -1.889,8.183 -2.356,-0.059 -1.335,-0.021 -0.55,0 0,0 Z" />
          </g>
          <g
             transform="translate(1682.1958,1347.7344)"
             id="g4283">
            <path
               inkscape:connector-curvature="0"
               id="path4285"
               style="fill:none;stroke:#231f20;stroke-width:1;stroke-linecap:butt;stroke-linejoin:miter;stroke-miterlimit:10;stroke-dasharray:none;stroke-opacity:1"
               d="m 0,0 c 1.717,0.488 3.825,0.917 6.323,1.289 2.498,0.371 5.172,0.557 8.022,0.557 2.459,0 4.801,-0.215 7.026,-0.645 2.225,-0.43 4.088,-1.192 5.592,-2.285 1.502,-1.094 2.546,-2.256 3.132,-3.486 0.586,-1.231 0.879,-2.511 0.879,-3.838 0,-1.834 -0.625,-3.639 -1.874,-5.413 -1.25,-1.776 -3.007,-3.161 -5.271,-4.156 -2.264,-0.995 -4.664,-1.824 -7.203,-2.487 -5.621,-1.443 -8.841,-2.282 -9.662,-2.516 -2.967,-0.86 -5.738,-1.795 -8.315,-2.809 -2.225,-0.859 -4.256,-1.912 -6.09,-3.161 -1.562,-1.014 -2.811,-2.107 -3.748,-3.277 -1.132,-1.404 -1.972,-2.877 -2.519,-4.418 -0.546,-1.542 -0.819,-3.131 -0.819,-4.77 0,-2.146 0.449,-4.194 1.348,-6.145 0.898,-1.951 2.285,-3.668 4.16,-5.15 1.875,-1.482 4.199,-2.478 6.973,-2.984 2.773,-0.507 5.8,-0.761 9.082,-0.761 1.757,0 3.622,0.088 5.595,0.264 1.973,0.175 4.541,0.577 7.705,1.201 0.235,1.484 0.528,2.968 0.879,4.453 -2.539,-0.82 -4.482,-1.377 -5.83,-1.67 -1.347,-0.293 -2.783,-0.527 -4.306,-0.703 -1.524,-0.176 -3.106,-0.264 -4.746,-0.264 -3.282,0 -6.085,0.38 -8.409,1.141 -2.324,0.76 -4.248,2.076 -5.771,3.949 -1.524,1.871 -2.285,4.074 -2.285,6.609 0,1.678 0.312,3.257 0.937,4.74 0.547,1.248 1.406,2.436 2.578,3.568 1.328,1.286 2.988,2.456 4.98,3.511 1.836,0.973 4.433,2.008 7.793,3.099 1.484,0.468 3.954,1.17 7.411,2.106 3.457,0.935 5.634,1.55 6.533,1.843 0.899,0.292 1.884,0.643 2.958,1.053 1.074,0.409 1.992,0.809 2.754,1.2 0.762,0.389 1.465,0.828 2.109,1.316 0.645,0.486 1.573,1.237 2.784,2.252 -0.235,-3.712 -0.42,-7.705 -0.557,-11.983 -0.136,-4.277 -0.312,-8.271 -0.526,-11.982 -0.214,-3.712 -0.595,-8.555 -1.141,-14.531 0.977,0.038 1.799,0.058 2.465,0.058 0.626,0 1.447,-0.02 2.464,-0.058 v 4.922 c 0,2.264 0.097,5.966 0.291,11.103 0.195,5.136 0.409,9.424 0.642,12.862 0.234,3.436 0.418,6.65 0.555,9.638 0.135,2.988 0.204,5.458 0.204,7.412 0,1.913 -0.303,3.788 -0.908,5.625 -0.606,1.836 -1.856,3.466 -3.75,4.893 C 28.549,2.598 26.108,3.612 23.12,4.219 20.131,4.824 16.898,5.127 13.422,5.127 10.414,5.127 7.446,4.922 4.516,4.512 1.586,4.102 -1.871,3.349 -5.855,2.256 -6.012,0.536 -6.227,-0.987 -6.5,-2.314 -3.885,-1.26 -1.718,-0.489 0,0 Z" />
          </g>
          <g
             transform="translate(1735.6396,1292.5098)"
             id="g4287">
            <path
               inkscape:connector-curvature="0"
               id="path4289"
               style="fill:none;stroke:#231f20;stroke-width:1;stroke-linecap:butt;stroke-linejoin:miter;stroke-miterlimit:10;stroke-dasharray:none;stroke-opacity:1"
               d="M 0,0 C 0.625,0 1.446,-0.021 2.463,-0.059 L 3.805,55.84 h 17.287 c 0.038,1.172 0.136,2.264 0.293,3.281 H 3.946 c 0.102,3.633 0.154,5.684 0.154,6.152 0.117,2.305 0.312,4.043 0.586,5.215 0.272,1.172 0.692,2.246 1.259,3.223 0.566,0.976 1.26,1.777 2.08,2.402 0.821,0.624 1.905,1.162 3.252,1.612 1.348,0.448 2.861,0.673 4.541,0.673 3.008,0 6.348,-0.644 10.02,-1.933 -0.274,1.523 -0.45,2.871 -0.527,4.043 -2.268,0.469 -4.057,0.781 -5.366,0.937 -1.31,0.156 -2.591,0.235 -3.842,0.235 -2.15,0 -4.046,-0.197 -5.689,-0.586 C 8.771,80.703 7.335,80.146 6.104,79.424 4.872,78.7 3.884,77.909 3.142,77.051 2.398,76.191 1.792,75.166 1.324,73.975 0.854,72.782 0.502,71.152 0.268,69.082 0.147,68.105 -0.014,64.784 -0.215,59.121 h -7.23 C -7.483,57.987 -7.581,56.895 -7.736,55.84 h 7.438 L -1.351,20.684 -2.404,-0.059 C -1.388,-0.021 -0.587,0 0,0 Z" />
          </g>
          <g
             transform="translate(1780.0181,1294.8145)"
             id="g4291">
            <path
               inkscape:connector-curvature="0"
               id="path4293"
               style="fill:none;stroke:#231f20;stroke-width:1;stroke-linecap:butt;stroke-linejoin:miter;stroke-miterlimit:10;stroke-dasharray:none;stroke-opacity:1"
               d="m 0,0 c -1.192,-0.17 -2.316,-0.254 -3.371,-0.254 -1.486,0 -2.922,0.331 -4.311,0.995 -1.387,0.663 -2.462,1.737 -3.224,3.219 -0.762,1.482 -1.143,3.863 -1.143,7.142 l 0.058,2.399 1.918,40.151 H 7.416 c 0.039,1.055 0.137,2.11 0.293,3.164 H -9.872 c 0,1.524 0.138,5.45 0.414,11.778 -1.088,-0.314 -2.371,-0.567 -3.847,-0.762 -0.12,-4.884 -0.281,-8.555 -0.483,-11.016 h -7.155 c -0.039,-1.054 -0.137,-2.109 -0.293,-3.164 h 7.234 l -1.957,-38.789 c -0.12,-2.265 -0.188,-3.73 -0.208,-4.394 -0.02,-0.665 -0.03,-1.153 -0.03,-1.465 0,-1.758 0.176,-3.408 0.528,-4.951 0.351,-1.544 1.073,-2.95 2.168,-4.219 1.093,-1.27 2.509,-2.148 4.248,-2.637 1.737,-0.488 3.72,-0.732 5.947,-0.732 2.656,0 5.566,0.39 8.73,1.172 0.156,1.289 0.39,2.519 0.703,3.691 C 3.234,0.612 1.192,0.169 0,0 Z" />
          </g>
        </g>
      </g>
      <text
         id="text4297"
         style="font-variant:normal;font-weight:normal;font-stretch:normal;font-size:120px;font-family:'Eras Light ITC';-inkscape-font-specification:ErasITC-Light;writing-mode:lr-tb;fill:#80cc28;fill-opacity:1;fill-rule:nonzero;stroke:none"
         transform="matrix(1,0,0,-1,1787.9619,1292.4512)">
        <tspan
           id="tspan4295"
           y="0"
           x="0">F</tspan>
      </text>
      <g
         id="g4299">
        <g
           clip-path="url(#clipPath4305)"
           id="g4301">
          <g
             transform="translate(1799.2725,1292.5098)"
             id="g4307">
            <path
               inkscape:connector-curvature="0"
               id="path4309"
               style="fill:none;stroke:#80cc28;stroke-width:1;stroke-linecap:butt;stroke-linejoin:miter;stroke-miterlimit:10;stroke-dasharray:none;stroke-opacity:1"
               d="m 0,0 c 0.741,0 1.601,-0.021 2.579,-0.059 0,8.985 0.237,21.856 0.713,38.614 5.584,0.155 10.895,0.234 15.932,0.234 2.381,0 5.622,-0.039 9.723,-0.117 l 10.426,-0.117 c 0.039,1.561 0.136,2.909 0.293,4.043 C 34.51,42.48 26.619,42.422 15.995,42.422 l -12.48,0.176 1.053,33.75 H 20.74 c 3.437,0 7.256,-0.022 11.455,-0.066 4.199,-0.044 7.978,-0.217 11.338,-0.52 0,1.21 0.078,2.597 0.235,4.16 L 23.365,79.863 c -7.427,0 -15.224,0.02 -23.392,0.059 0,-2.969 -0.02,-5.88 -0.058,-8.731 L -0.318,59.59 -1.536,20.332 -2.58,-0.059 C -1.603,-0.021 -0.744,0 0,0 Z" />
          </g>
        </g>
      </g>
      <text
         id="text4313"
         style="font-variant:normal;font-weight:normal;font-stretch:normal;font-size:120px;font-family:'Eras Light ITC';-inkscape-font-specification:ErasITC-Light;writing-mode:lr-tb;fill:#231f20;fill-opacity:1;fill-rule:nonzero;stroke:none"
         transform="matrix(1,0,0,-1,1847.6689,1292.4512)">
        <tspan
           id="tspan4311"
           sodipodi:role="line"
           y="0"
           x="0 67.559998 135.12 202.8 232.8 306 365.88 398.88 459.35999 497.04001 519.47998 587.88">ood Catering</tspan>
      </text>
      <g
         id="g4315">
        <g
           clip-path="url(#clipPath4321)"
           id="g4317">
          <g
             transform="translate(1867.1514,1349.1699)"
             id="g4323">
            <path
               inkscape:connector-curvature="0"
               id="path4325"
               style="fill:none;stroke:#231f20;stroke-width:1;stroke-linecap:butt;stroke-linejoin:miter;stroke-miterlimit:10;stroke-dasharray:none;stroke-opacity:1"
               d="m 0,0 c -4.668,-2.461 -8.174,-6.299 -10.518,-11.514 -2.343,-5.215 -3.515,-10.966 -3.515,-17.256 0,-3.594 0.458,-7.051 1.377,-10.371 0.917,-3.32 2.265,-6.191 4.043,-8.613 1.777,-2.423 3.847,-4.394 6.211,-5.918 2.362,-1.523 4.902,-2.607 7.617,-3.252 2.714,-0.644 5.478,-0.967 8.291,-0.967 4.023,0 7.822,0.607 11.396,1.817 3.575,1.21 6.689,3.29 9.346,6.24 2.656,2.949 4.707,6.611 6.152,10.986 1.445,4.374 2.168,8.945 2.168,13.711 0,4.414 -0.684,8.593 -2.05,12.539 -1.368,3.946 -3.351,7.139 -5.948,9.58 -2.598,2.441 -5.595,4.169 -8.994,5.186 C 22.178,3.184 18.662,3.691 15.029,3.691 9.677,3.691 4.667,2.461 0,0 Z m 23.818,-0.878 c 2.89,-0.858 5.469,-2.351 7.735,-4.477 2.265,-2.127 3.935,-4.957 5.01,-8.488 1.073,-3.531 1.611,-7.305 1.611,-11.325 0,-4.332 -0.548,-8.429 -1.641,-12.292 -1.094,-3.863 -2.803,-7.122 -5.127,-9.774 -2.324,-2.654 -5.01,-4.546 -8.056,-5.678 -3.047,-1.132 -6.309,-1.697 -9.786,-1.697 -3.046,0 -5.947,0.458 -8.701,1.375 -2.754,0.918 -5.322,2.556 -7.705,4.917 -2.383,2.36 -4.112,5.258 -5.185,8.692 -1.075,3.434 -1.612,7.102 -1.612,11.004 0,5.541 0.938,10.633 2.813,15.276 1.875,4.644 4.805,8.097 8.789,10.361 3.984,2.262 8.3,3.394 12.949,3.394 3.047,0 6.015,-0.43 8.906,-1.288 z" />
          </g>
          <g
             transform="translate(1934.6514,1349.1699)"
             id="g4327">
            <path
               inkscape:connector-curvature="0"
               id="path4329"
               style="fill:none;stroke:#231f20;stroke-width:1;stroke-linecap:butt;stroke-linejoin:miter;stroke-miterlimit:10;stroke-dasharray:none;stroke-opacity:1"
               d="m 0,0 c -4.668,-2.461 -8.174,-6.299 -10.518,-11.514 -2.343,-5.215 -3.515,-10.966 -3.515,-17.256 0,-3.594 0.458,-7.051 1.377,-10.371 0.917,-3.32 2.265,-6.191 4.043,-8.613 1.777,-2.423 3.847,-4.394 6.211,-5.918 2.362,-1.523 4.902,-2.607 7.617,-3.252 2.714,-0.644 5.478,-0.967 8.291,-0.967 4.023,0 7.822,0.607 11.396,1.817 3.575,1.21 6.689,3.29 9.346,6.24 2.656,2.949 4.707,6.611 6.152,10.986 1.445,4.374 2.168,8.945 2.168,13.711 0,4.414 -0.684,8.593 -2.05,12.539 -1.368,3.946 -3.351,7.139 -5.948,9.58 -2.598,2.441 -5.595,4.169 -8.994,5.186 C 22.178,3.184 18.662,3.691 15.029,3.691 9.677,3.691 4.667,2.461 0,0 Z m 23.818,-0.878 c 2.89,-0.858 5.469,-2.351 7.735,-4.477 2.265,-2.127 3.935,-4.957 5.01,-8.488 1.073,-3.531 1.611,-7.305 1.611,-11.325 0,-4.332 -0.548,-8.429 -1.641,-12.292 -1.094,-3.863 -2.803,-7.122 -5.127,-9.774 -2.324,-2.654 -5.01,-4.546 -8.056,-5.678 -3.047,-1.132 -6.309,-1.697 -9.786,-1.697 -3.046,0 -5.947,0.458 -8.701,1.375 -2.754,0.918 -5.322,2.556 -7.705,4.917 -2.383,2.36 -4.112,5.258 -5.185,8.692 -1.075,3.434 -1.612,7.102 -1.612,11.004 0,5.541 0.938,10.633 2.813,15.276 1.875,4.644 4.805,8.097 8.789,10.361 3.984,2.262 8.3,3.394 12.949,3.394 3.047,0 6.015,-0.43 8.906,-1.288 z" />
          </g>
          <g
             transform="translate(2040.7373,1299.6055)"
             id="g4331">
            <path
               inkscape:connector-curvature="0"
               id="path4333"
               style="fill:none;stroke:#231f20;stroke-width:1;stroke-linecap:butt;stroke-linejoin:miter;stroke-miterlimit:10;stroke-dasharray:none;stroke-opacity:1"
               d="m 0,0 c 0,3.439 0.128,10.593 0.385,21.461 l 0.831,28.38 c 0.237,8.013 0.573,15.675 1.009,22.985 -0.978,-0.039 -1.779,-0.058 -2.404,-0.058 -0.625,0 -1.445,0.019 -2.462,0.058 0.118,-3.789 0.176,-7.187 0.176,-10.195 0,-3.399 -0.1,-6.953 -0.3,-10.664 -4.765,0.858 -9.159,1.289 -13.181,1.289 -4.922,0 -9.598,-0.645 -14.031,-1.932 -4.433,-1.288 -8.397,-3.503 -11.892,-6.644 -3.495,-3.142 -6.161,-7.015 -7.997,-11.619 -1.836,-4.606 -2.753,-9.387 -2.753,-14.342 0,-3.669 0.497,-7.152 1.493,-10.449 0.995,-3.298 2.635,-6.206 4.919,-8.723 2.284,-2.518 5.075,-4.458 8.374,-5.824 3.299,-1.367 6.842,-2.049 10.629,-2.049 2.459,0 4.841,0.312 7.144,0.936 2.304,0.624 4.334,1.445 6.091,2.458 1.757,1.015 3.25,2.157 4.479,3.425 1.23,1.269 2.245,2.566 3.046,3.894 0.799,1.326 1.669,3.122 2.606,5.384 L -4.689,-7.154 h 2.374 c 0.514,0 1.286,-0.02 2.315,-0.059 z M -3.546,28.375 C -3.742,22.718 -4.093,18.522 -4.601,15.792 -5.108,13.06 -5.899,10.543 -6.972,8.241 -8.046,5.938 -9.295,3.939 -10.72,2.242 c -1.425,-1.698 -2.928,-3.054 -4.508,-4.068 -1.581,-1.014 -3.357,-1.805 -5.329,-2.37 -1.971,-0.566 -4.148,-0.849 -6.529,-0.849 -4.021,0 -7.661,0.907 -10.92,2.722 -3.261,1.814 -5.778,4.614 -7.555,8.399 -1.775,3.784 -2.664,7.979 -2.664,12.584 0,4.175 0.81,8.409 2.432,12.701 1.622,4.292 3.917,7.843 6.886,10.653 2.969,2.809 6.446,4.839 10.43,6.088 3.985,1.249 8.165,1.873 12.541,1.873 1.836,0 3.769,-0.127 5.801,-0.381 2.031,-0.255 4.434,-0.812 7.208,-1.67 z" />
          </g>
          <g
             transform="translate(2126.436,1294.8535)"
             id="g4335">
            <path
               inkscape:connector-curvature="0"
               id="path4337"
               style="fill:none;stroke:#231f20;stroke-width:1;stroke-linecap:butt;stroke-linejoin:miter;stroke-miterlimit:10;stroke-dasharray:none;stroke-opacity:1"
               d="m 0,0 c -5.241,0 -10.07,0.829 -14.488,2.49 -4.419,1.66 -8.232,4.092 -11.438,7.295 -3.206,3.202 -5.592,7.178 -7.156,11.924 -1.564,4.746 -2.345,9.735 -2.345,14.971 0,5.428 0.948,10.693 2.844,15.791 1.896,5.097 4.624,9.375 8.182,12.832 3.558,3.457 7.664,5.967 12.317,7.529 4.653,1.562 9.502,2.344 14.547,2.344 2.893,0 5.894,-0.235 9.003,-0.703 3.108,-0.469 6.813,-1.407 11.115,-2.813 -0.274,1.758 -0.45,3.437 -0.528,5.039 -2.578,0.547 -4.639,0.938 -6.181,1.172 -1.544,0.234 -3.516,0.448 -5.918,0.645 -2.403,0.195 -4.64,0.293 -6.709,0.293 -6.134,0 -11.905,-0.909 -17.315,-2.725 -5.41,-1.816 -10.049,-4.609 -13.916,-8.379 -3.867,-3.77 -6.807,-8.506 -8.818,-14.209 -2.012,-5.704 -3.018,-11.601 -3.018,-17.695 0,-5.47 0.859,-10.685 2.578,-15.645 1.719,-4.961 4.414,-9.249 8.086,-12.861 3.672,-3.613 8.066,-6.338 13.184,-8.174 5.117,-1.836 10.527,-2.754 16.23,-2.754 2.773,0 5.908,0.196 9.405,0.586 3.495,0.391 7.236,1.074 11.22,2.051 C 21.076,0.84 21.33,2.44 21.643,3.809 13.666,1.269 6.452,0 0,0 Z" />
          </g>
          <g
             transform="translate(2170.8091,1347.7344)"
             id="g4339">
            <path
               inkscape:connector-curvature="0"
               id="path4341"
               style="fill:none;stroke:#231f20;stroke-width:1;stroke-linecap:butt;stroke-linejoin:miter;stroke-miterlimit:10;stroke-dasharray:none;stroke-opacity:1"
               d="m 0,0 c 1.717,0.488 3.825,0.917 6.323,1.289 2.498,0.371 5.172,0.557 8.022,0.557 2.459,0 4.801,-0.215 7.026,-0.645 2.225,-0.43 4.088,-1.192 5.592,-2.285 1.502,-1.094 2.546,-2.256 3.132,-3.486 0.586,-1.231 0.879,-2.511 0.879,-3.838 0,-1.834 -0.625,-3.639 -1.874,-5.413 -1.25,-1.776 -3.007,-3.161 -5.271,-4.156 -2.264,-0.995 -4.664,-1.824 -7.203,-2.487 -5.621,-1.443 -8.841,-2.282 -9.662,-2.516 -2.967,-0.86 -5.738,-1.795 -8.315,-2.809 -2.225,-0.859 -4.256,-1.912 -6.09,-3.161 -1.562,-1.014 -2.811,-2.107 -3.748,-3.277 -1.132,-1.404 -1.972,-2.877 -2.519,-4.418 -0.546,-1.542 -0.819,-3.131 -0.819,-4.77 0,-2.146 0.449,-4.194 1.348,-6.145 0.898,-1.951 2.285,-3.668 4.16,-5.15 1.875,-1.482 4.199,-2.478 6.973,-2.984 2.773,-0.507 5.8,-0.761 9.082,-0.761 1.757,0 3.622,0.088 5.595,0.264 1.973,0.175 4.541,0.577 7.705,1.201 0.235,1.484 0.528,2.968 0.879,4.453 -2.539,-0.82 -4.482,-1.377 -5.83,-1.67 -1.347,-0.293 -2.783,-0.527 -4.306,-0.703 -1.524,-0.176 -3.106,-0.264 -4.746,-0.264 -3.282,0 -6.085,0.38 -8.409,1.141 -2.324,0.76 -4.248,2.076 -5.771,3.949 -1.524,1.871 -2.285,4.074 -2.285,6.609 0,1.678 0.312,3.257 0.937,4.74 0.547,1.248 1.406,2.436 2.578,3.568 1.328,1.286 2.988,2.456 4.98,3.511 1.836,0.973 4.433,2.008 7.793,3.099 1.484,0.468 3.954,1.17 7.411,2.106 3.457,0.935 5.634,1.55 6.533,1.843 0.899,0.292 1.884,0.643 2.958,1.053 1.074,0.409 1.992,0.809 2.754,1.2 0.762,0.389 1.465,0.828 2.109,1.316 0.645,0.486 1.573,1.237 2.784,2.252 -0.235,-3.712 -0.42,-7.705 -0.557,-11.983 -0.136,-4.277 -0.312,-8.271 -0.526,-11.982 -0.214,-3.712 -0.595,-8.555 -1.141,-14.531 0.977,0.038 1.799,0.058 2.465,0.058 0.626,0 1.447,-0.02 2.464,-0.058 v 4.922 c 0,2.264 0.097,5.966 0.291,11.103 0.195,5.136 0.409,9.424 0.642,12.862 0.234,3.436 0.418,6.65 0.555,9.638 0.135,2.988 0.204,5.458 0.204,7.412 0,1.913 -0.303,3.788 -0.908,5.625 -0.606,1.836 -1.856,3.466 -3.75,4.893 C 28.549,2.598 26.108,3.612 23.12,4.219 20.131,4.824 16.898,5.127 13.422,5.127 10.414,5.127 7.446,4.922 4.516,4.512 1.586,4.102 -1.871,3.349 -5.855,2.256 -6.012,0.536 -6.227,-0.987 -6.5,-2.314 -3.885,-1.26 -1.718,-0.489 0,0 Z" />
          </g>
          <g
             transform="translate(2238.5728,1294.8145)"
             id="g4343">
            <path
               inkscape:connector-curvature="0"
               id="path4345"
               style="fill:none;stroke:#231f20;stroke-width:1;stroke-linecap:butt;stroke-linejoin:miter;stroke-miterlimit:10;stroke-dasharray:none;stroke-opacity:1"
               d="m 0,0 c -1.192,-0.17 -2.316,-0.254 -3.371,-0.254 -1.486,0 -2.922,0.331 -4.311,0.995 -1.387,0.663 -2.462,1.737 -3.224,3.219 -0.762,1.482 -1.143,3.863 -1.143,7.142 l 0.058,2.399 1.918,40.151 H 7.416 c 0.039,1.055 0.137,2.11 0.293,3.164 H -9.872 c 0,1.524 0.138,5.45 0.414,11.778 -1.088,-0.314 -2.371,-0.567 -3.847,-0.762 -0.12,-4.884 -0.281,-8.555 -0.483,-11.016 h -7.155 c -0.039,-1.054 -0.137,-2.109 -0.293,-3.164 h 7.234 l -1.957,-38.789 c -0.12,-2.265 -0.188,-3.73 -0.208,-4.394 -0.02,-0.665 -0.03,-1.153 -0.03,-1.465 0,-1.758 0.176,-3.408 0.528,-4.951 0.351,-1.544 1.073,-2.95 2.168,-4.219 1.093,-1.27 2.509,-2.148 4.248,-2.637 1.737,-0.488 3.72,-0.732 5.947,-0.732 2.656,0 5.566,0.39 8.73,1.172 0.156,1.289 0.39,2.519 0.703,3.691 C 3.234,0.612 1.192,0.169 0,0 Z" />
          </g>
          <g
             transform="translate(2280.7104,1294.5605)"
             id="g4347">
            <path
               inkscape:connector-curvature="0"
               id="path4349"
               style="fill:none;stroke:#231f20;stroke-width:1;stroke-linecap:butt;stroke-linejoin:miter;stroke-miterlimit:10;stroke-dasharray:none;stroke-opacity:1"
               d="m 0,0 c -3.442,0 -6.709,0.564 -9.799,1.695 -3.091,1.131 -5.74,2.867 -7.95,5.206 -2.21,2.339 -3.864,5.245 -4.959,8.714 -1.095,3.47 -1.642,7.058 -1.642,10.762 0,1.287 0.097,3.198 0.293,5.732 l 46.406,0.059 c 0.078,0.858 0.117,1.758 0.117,2.695 0,5.039 -0.987,9.395 -2.959,13.067 -1.973,3.671 -4.736,6.318 -8.291,7.939 -3.555,1.62 -7.52,2.432 -11.894,2.432 -6.368,0 -11.7,-1.561 -15.996,-4.683 -4.298,-3.122 -7.383,-7.055 -9.258,-11.796 -1.875,-4.741 -2.813,-9.824 -2.813,-15.249 0,-4.137 0.547,-8.04 1.641,-11.708 1.093,-3.668 2.93,-6.976 5.508,-9.922 2.578,-2.946 5.673,-5.053 9.287,-6.322 3.613,-1.267 7.764,-1.902 12.451,-1.902 2.695,0 5.332,0.185 7.91,0.556 2.578,0.372 5.488,1.026 8.731,1.963 0.155,1.503 0.39,2.989 0.703,4.453 C 11.07,1.23 5.242,0 0,0 Z m -21.975,40.869 c 0.489,1.348 1.194,2.763 2.113,4.248 0.919,1.485 2.092,2.862 3.52,4.131 1.427,1.269 2.963,2.315 4.606,3.135 1.643,0.82 3.462,1.465 5.457,1.933 1.994,0.469 4.029,0.704 6.103,0.704 1.876,0 3.676,-0.197 5.397,-0.586 1.722,-0.391 3.276,-0.967 4.665,-1.729 1.388,-0.762 2.601,-1.699 3.637,-2.812 1.037,-1.114 1.928,-2.432 2.671,-3.955 0.743,-1.524 1.252,-3.009 1.525,-4.454 0.274,-1.445 0.43,-3.515 0.47,-6.211 l -41.719,0.059 c 0.548,2.344 1.066,4.189 1.555,5.537 z" />
          </g>
          <g
             transform="translate(2316.373,1292.5098)"
             id="g4351">
            <path
               inkscape:connector-curvature="0"
               id="path4353"
               style="fill:none;stroke:#231f20;stroke-width:1;stroke-linecap:butt;stroke-linejoin:miter;stroke-miterlimit:10;stroke-dasharray:none;stroke-opacity:1"
               d="m 0,0 c 0.549,0 1.335,-0.021 2.356,-0.059 0,4.14 0.076,10.527 0.226,19.161 0.111,6.406 0.375,12.108 0.787,17.109 0.273,3.202 0.801,5.918 1.583,8.144 0.626,1.914 1.564,3.721 2.815,5.42 1.25,1.7 2.531,3.038 3.84,4.014 1.31,0.976 2.717,1.719 4.222,2.227 1.505,0.506 3.195,0.761 5.072,0.761 1.915,0 4.182,-0.332 6.801,-0.996 -0.157,1.327 -0.234,2.657 -0.234,3.985 -1.641,0.389 -3.262,0.586 -4.864,0.586 -2.187,0 -4.286,-0.245 -6.297,-0.733 C 14.294,59.13 12.537,58.427 11.033,57.51 9.53,56.592 8.211,55.449 7.079,54.082 5.945,52.714 4.715,50.703 3.388,48.047 L 3.913,59.121 C 3.17,59.082 2.447,59.063 1.744,59.063 c -0.664,0 -1.387,0.019 -2.169,0.058 l 0.059,-5.273 c 0,-5.43 -0.215,-13.711 -0.645,-24.844 C -1.44,17.871 -1.889,8.183 -2.356,-0.059 -1.335,-0.021 -0.55,0 0,0 Z" />
          </g>
          <g
             transform="translate(2357.7236,1366.748)"
             id="g4355">
            <path
               inkscape:connector-curvature="0"
               id="path4357"
               style="fill:none;stroke:#231f20;stroke-width:1;stroke-linecap:butt;stroke-linejoin:miter;stroke-miterlimit:10;stroke-dasharray:none;stroke-opacity:1"
               d="M 0,0 C 1.016,0 2.012,-0.039 2.988,-0.117 L 3.164,5.684 C 2.188,5.645 1.191,5.625 0.176,5.625 c -1.016,0 -2.012,0.02 -2.989,0.059 L -2.988,-0.117 C -2.012,-0.039 -1.016,0 0,0 Z m -2.807,-74.238 c 0.548,0 1.329,-0.021 2.346,-0.059 0,6.406 0.263,16.016 0.789,28.828 0.526,12.812 1.063,22.93 1.609,30.352 -1.004,-0.039 -1.796,-0.059 -2.374,-0.059 -0.541,0 -1.313,0.02 -2.317,0.059 0,-4.453 -0.29,-13.966 -0.87,-28.535 -0.579,-14.571 -1.089,-24.786 -1.528,-30.645 1.016,0.038 1.798,0.059 2.345,0.059 z" />
          </g>
          <g
             transform="translate(2376.4805,1292.5098)"
             id="g4359">
            <path
               inkscape:connector-curvature="0"
               id="path4361"
               style="fill:none;stroke:#231f20;stroke-width:1;stroke-linecap:butt;stroke-linejoin:miter;stroke-miterlimit:10;stroke-dasharray:none;stroke-opacity:1"
               d="m 0,0 c 0.546,0 1.328,-0.021 2.345,-0.059 0,5.157 0.145,11.455 0.436,18.897 0.291,7.441 0.669,12.803 1.135,16.084 0.507,3.788 1.249,6.738 2.225,8.848 1.288,2.89 2.947,5.282 4.978,7.177 2.03,1.895 4.393,3.33 7.087,4.307 2.85,1.016 6.13,1.523 9.84,1.523 2.655,0 5.231,-0.302 7.73,-0.908 2.5,-0.606 4.658,-1.582 6.473,-2.93 1.815,-1.347 3.094,-3.038 3.836,-5.068 0.741,-2.031 1.113,-4.336 1.113,-6.914 0,-2.461 -0.155,-6.466 -0.464,-12.012 l -0.81,-15 C 45.692,9.492 45.384,4.824 44.997,-0.059 45.74,-0.021 46.483,0 47.227,0 c 0.743,0 1.505,-0.021 2.289,-0.059 l 0.233,9.551 1.226,26.66 c 0.116,2.382 0.174,4.18 0.174,5.391 0,2.695 -0.381,5.224 -1.143,7.588 -0.762,2.363 -2.159,4.453 -4.192,6.269 -2.032,1.817 -4.592,3.096 -7.679,3.838 -3.089,0.741 -6.274,1.114 -9.557,1.114 -1.955,0 -3.929,-0.147 -5.922,-0.44 C 20.662,59.619 18.718,59.15 16.822,58.506 14.927,57.861 13.305,57.061 11.957,56.104 10.608,55.146 9.445,54.12 8.468,53.027 7.491,51.934 6.719,50.908 6.152,49.951 5.585,48.993 4.872,47.598 4.013,45.762 l 0.789,13.359 c -1.016,-0.039 -1.76,-0.058 -2.229,-0.058 -0.509,0 -1.27,0.019 -2.287,0.058 0,-1.368 -0.039,-3.555 -0.117,-6.562 L -0.357,35.742 -2.347,-0.059 C -1.331,-0.021 -0.548,0 0,0 Z" />
          </g>
          <g
             transform="translate(2446.3799,1266.4355)"
             id="g4363">
            <path
               inkscape:connector-curvature="0"
               id="path4365"
               style="fill:none;stroke:#231f20;stroke-width:1;stroke-linecap:butt;stroke-linejoin:miter;stroke-miterlimit:10;stroke-dasharray:none;stroke-opacity:1"
               d="m 0,0 c 3.984,-0.937 7.48,-1.572 10.489,-1.904 3.009,-0.331 6.095,-0.498 9.259,-0.498 4.298,0 8.165,0.43 11.604,1.289 3.164,0.782 5.781,1.837 7.852,3.164 2.069,1.328 3.788,2.95 5.156,4.863 1.368,1.914 2.383,4.082 3.048,6.504 0.624,2.266 1.015,4.863 1.172,7.793 l 0.668,24.551 1.3,26.836 c 0.119,2.07 0.239,3.75 0.359,5.039 l 0.597,6.738 c -7.617,1.367 -14.102,2.051 -19.453,2.051 -5.274,0 -10.176,-0.684 -14.707,-2.051 C 12.812,83.007 8.818,80.751 5.361,77.607 1.904,74.463 -0.762,70.468 -2.637,65.625 -4.512,60.781 -5.449,55.723 -5.449,50.449 c 0,-3.867 0.624,-7.55 1.875,-11.045 1.251,-3.496 3.096,-6.357 5.539,-8.584 2.442,-2.226 5.217,-3.808 8.324,-4.746 3.107,-0.937 6.476,-1.406 10.11,-1.406 2.268,0 4.455,0.215 6.566,0.644 2.109,0.431 4.034,1.026 5.773,1.788 1.739,0.761 3.283,1.62 4.631,2.578 1.348,0.957 2.529,2.03 3.546,3.222 1.016,1.192 1.807,2.324 2.374,3.399 0.566,1.074 1.24,2.549 2.023,4.424 C 45.19,34.629 44.989,29.159 44.707,24.316 44.59,21.309 44.268,18.496 43.74,15.879 43.213,13.263 42.422,11.074 41.367,9.316 40.468,7.832 39.199,6.484 37.559,5.273 35.722,3.946 33.495,2.91 30.879,2.168 28.027,1.31 24.94,0.879 21.621,0.879 18.809,0.879 15.723,1.134 12.363,1.641 9.003,2.148 4.746,3.145 -0.41,4.629 -0.215,3.145 -0.079,1.603 0,0 Z M 46.104,61.523 C 45.833,56.211 45.368,51.855 44.71,48.457 44.202,46.034 43.371,43.661 42.22,41.338 41.067,39.014 39.729,36.992 38.205,35.273 36.682,33.554 35.09,32.177 33.43,31.143 c -1.661,-1.036 -3.428,-1.788 -5.303,-2.256 -2.423,-0.625 -5.04,-0.938 -7.853,-0.938 -4.14,0 -7.92,0.928 -11.338,2.783 -3.419,1.855 -5.939,4.62 -7.559,8.291 -1.621,3.671 -2.432,7.773 -2.432,12.305 0,4.726 0.878,9.296 2.636,13.711 1.757,4.414 4.227,8.027 7.409,10.84 3.183,2.812 6.689,4.725 10.515,5.742 3.827,1.016 7.985,1.524 12.476,1.524 1.717,0 3.69,-0.08 5.916,-0.235 2.226,-0.156 5.194,-0.586 8.904,-1.289 z" />
          </g>
          <g
             transform="translate(578.8202,1459.6199)"
             id="g4367">
            <path
               inkscape:connector-curvature="0"
               id="path4369"
               style="fill:#80cc28;fill-opacity:1;fill-rule:nonzero;stroke:none"
               d="M 0,0 36.843,-446.673 76.58,-0.248 Z" />
          </g>
          <g
             transform="translate(578.8202,1459.6199)"
             id="g4371">
            <path
               inkscape:connector-curvature="0"
               id="path4373"
               style="fill:none;stroke:#80cc28;stroke-width:1;stroke-linecap:butt;stroke-linejoin:miter;stroke-miterlimit:10;stroke-dasharray:none;stroke-opacity:1"
               d="M 0,0 36.843,-446.673 76.58,-0.248 Z" />
          </g>
          <g
             transform="translate(1214.4918,1478.3529)"
             id="g4375">
            <path
               inkscape:connector-curvature="0"
               id="path4377"
               style="fill:#80cc28;fill-opacity:1;fill-rule:nonzero;stroke:none"
               d="M 0,0 32.462,-446.659 67.817,-0.22 Z" />
          </g>
          <g
             transform="translate(1214.4918,1478.3529)"
             id="g4379">
            <path
               inkscape:connector-curvature="0"
               id="path4381"
               style="fill:none;stroke:#80cc28;stroke-width:1;stroke-linecap:butt;stroke-linejoin:miter;stroke-miterlimit:10;stroke-dasharray:none;stroke-opacity:1"
               d="M 0,0 32.462,-446.659 67.817,-0.22 Z" />
          </g>
          <g
             transform="translate(1533,2135)"
             id="g4383">
            <path
               inkscape:connector-curvature="0"
               id="path4385"
               style="fill:#80cc28;fill-opacity:1;fill-rule:nonzero;stroke:none"
               d="m 0,0 c 0,-24.301 -19.699,-44 -44,-44 -24.301,0 -44,19.699 -44,44 0,24.301 19.699,44 44,44 C -19.699,44 0,24.301 0,0" />
          </g>
          <g
             transform="translate(1533,2135)"
             id="g4387">
            <path
               inkscape:connector-curvature="0"
               id="path4389"
               style="fill:none;stroke:#80cc28;stroke-width:1;stroke-linecap:butt;stroke-linejoin:miter;stroke-miterlimit:10;stroke-dasharray:none;stroke-opacity:1"
               d="m 0,0 c 0,-24.301 -19.699,-44 -44,-44 -24.301,0 -44,19.699 -44,44 0,24.301 19.699,44 44,44 C -19.699,44 0,24.301 0,0 Z" />
          </g>
        </g>
      </g>
    </g>
  </g>
</svg>
