<?xml version="1.0" encoding="UTF-8" standalone="no"?>
<!-- Created with Inkscape (http://www.inkscape.org/) -->

<svg
   xmlns:dc="http://purl.org/dc/elements/1.1/"
   xmlns:cc="http://creativecommons.org/ns#"
   xmlns:rdf="http://www.w3.org/1999/02/22-rdf-syntax-ns#"
   xmlns:svg="http://www.w3.org/2000/svg"
   xmlns="http://www.w3.org/2000/svg"
   xmlns:sodipodi="http://sodipodi.sourceforge.net/DTD/sodipodi-0.dtd"
   xmlns:inkscape="http://www.inkscape.org/namespaces/inkscape"
   width="82.718468mm"
   height="9.715169mm"
   viewBox="0 0 82.718468 9.715169"
   version="1.1"
   id="svg8"
   inkscape:version="0.92.4 (5da689c313, 2019-01-14)"
   sodipodi:docname="logo-text.svg">
  <defs
     id="defs2" />
  <sodipodi:namedview
     id="base"
     pagecolor="#ffffff"
     bordercolor="#666666"
     borderopacity="1.0"
     inkscape:pageopacity="0.0"
     inkscape:pageshadow="2"
     inkscape:zoom="0.98994949"
     inkscape:cx="-304.26259"
     inkscape:cy="49.328294"
     inkscape:document-units="mm"
     inkscape:current-layer="layer1"
     showgrid="false"
     inkscape:window-width="1858"
     inkscape:window-height="1058"
     inkscape:window-x="3894"
     inkscape:window-y="-8"
     inkscape:window-maximized="1" />
  <metadata
     id="metadata5">
    <rdf:RDF>
      <cc:Work
         rdf:about="">
        <dc:format>image/svg+xml</dc:format>
        <dc:type
           rdf:resource="http://purl.org/dc/dcmitype/StillImage" />
        <dc:title></dc:title>
      </cc:Work>
    </rdf:RDF>
  </metadata>
  <g
     inkscape:label="Ebene 1"
     inkscape:groupmode="layer"
     id="layer1"
     transform="translate(-31.541817,-109.11852)">
    <g
       aria-label="CraftFood Catering"
       style="font-style:normal;font-weight:normal;font-size:10.58333302px;line-height:1.25;font-family:sans-serif;letter-spacing:0px;word-spacing:0px;fill:#000000;fill-opacity:1;stroke:none;stroke-width:0.26458332"
       id="text817">
      <path
         d="m 36.962675,115.77961 q -0.04134,0.18086 -0.06718,0.42374 -0.5271,0.12919 -0.992188,0.18087 -0.45992,0.0517 -0.826823,0.0517 -0.754476,0 -1.431437,-0.24288 -0.676961,-0.24288 -1.16272,-0.7183 -0.485758,-0.48059 -0.713134,-1.13689 -0.227377,-0.65629 -0.227377,-1.37976 0,-0.80615 0.26355,-1.56062 0.268718,-0.75448 0.780314,-1.25057 0.511597,-0.50127 1.224732,-0.73898 0.718302,-0.24288 1.529622,-0.24288 0.273885,0 0.589111,0.0258 0.320394,0.0258 0.521932,0.0568 0.206706,0.031 0.54777,0.10335 0.01034,0.21187 0.04651,0.44442 -0.568441,-0.18604 -0.981852,-0.24805 -0.408244,-0.062 -0.790649,-0.062 -0.666626,0 -1.281576,0.2067 -0.614949,0.20671 -1.085205,0.66663 -0.470255,0.45475 -0.72347,1.13171 -0.248047,0.6718 -0.248047,1.3901 0,0.69246 0.206706,1.32292 0.206706,0.62528 0.630452,1.04903 0.423747,0.42374 1.007691,0.64595 0.583943,0.21704 1.276408,0.21704 0.852661,0 1.90686,-0.33589 z"
         style="fill:#80cc28;fill-opacity:1"
         id="path843" />
      <path
         d="m 38.084053,116.32738 q 0.06201,-1.09038 0.118856,-2.56315 0.05684,-1.47278 0.05684,-2.19108 l -0.0052,-0.46509 q 0.103353,0.005 0.191203,0.005 0.09302,0 0.191202,-0.005 l -0.04651,0.97668 q 0.175699,-0.3514 0.325561,-0.53226 0.149862,-0.18087 0.346232,-0.29973 0.201538,-0.12402 0.465088,-0.18603 0.268717,-0.0672 0.558105,-0.0672 0.211874,0 0.428915,0.0517 0,0.1757 0.02067,0.3514 -0.346232,-0.0878 -0.599446,-0.0878 -0.248047,0 -0.449585,0.0672 -0.196371,0.0672 -0.37207,0.19637 -0.170533,0.12919 -0.335897,0.35657 -0.165365,0.22221 -0.248047,0.47542 -0.103353,0.29456 -0.139526,0.71831 -0.05684,0.66145 -0.07235,1.50895 -0.02067,1.14205 -0.02067,1.68982 -0.134359,-0.005 -0.206706,-0.005 -0.07235,0 -0.206706,0.005 z"
         style="font-style:normal;font-variant:normal;font-weight:normal;font-stretch:normal;font-size:10.58333302px;font-family:'Eras Light ITC';-inkscape-font-specification:'Eras Light ITC, Normal';font-variant-ligatures:normal;font-variant-caps:normal;font-variant-numeric:normal;font-feature-settings:normal;text-align:start;writing-mode:lr-tb;text-anchor:start;stroke-width:0.26458332"
         id="path845" />
      <path
         d="m 41.73241,111.65583 q 0.03617,-0.1757 0.05684,-0.40308 0.527099,-0.14469 0.914673,-0.19637 0.387573,-0.0568 0.785481,-0.0568 0.459921,0 0.852662,0.0827 0.397908,0.0775 0.645955,0.26872 0.253214,0.18603 0.330729,0.42891 0.08268,0.24288 0.08268,0.4961 0,0.25838 -0.02067,0.65629 -0.0155,0.39274 -0.04651,0.84749 -0.03101,0.45475 -0.05684,1.13688 -0.02584,0.67696 -0.02584,0.97669 v 0.43408 q -0.134359,-0.005 -0.217041,-0.005 -0.08785,0 -0.217041,0.005 0.07235,-0.79065 0.09819,-1.28158 0.03101,-0.49092 0.04651,-1.0542 0.02067,-0.56844 0.05168,-1.05936 -0.160197,0.13435 -0.248047,0.20153 -0.08268,0.062 -0.186035,0.11369 -0.09818,0.0517 -0.242879,0.10852 -0.139526,0.0517 -0.258382,0.093 -0.118856,0.0362 -0.578776,0.1602 -0.454753,0.12402 -0.651123,0.18603 -0.444418,0.1447 -0.687297,0.27389 -0.26355,0.13952 -0.43925,0.31006 -0.155029,0.14986 -0.227376,0.31522 -0.08268,0.19637 -0.08268,0.41858 0,0.3359 0.201538,0.58394 0.201538,0.24805 0.506429,0.3514 0.310059,0.0982 0.744141,0.0982 0.217041,0 0.418579,-0.0207 0.201538,-0.0258 0.377238,-0.062 0.180867,-0.0413 0.516764,-0.14986 -0.04651,0.19637 -0.07751,0.39274 -0.418579,0.0827 -0.682129,0.10335 -0.258382,0.0258 -0.490926,0.0258 -0.434082,0 -0.800984,-0.0672 -0.366903,-0.0672 -0.61495,-0.26355 -0.248047,-0.19637 -0.366903,-0.45475 -0.118855,-0.25839 -0.118855,-0.54261 0,-0.21704 0.07235,-0.41858 0.07235,-0.2067 0.222208,-0.39274 0.124024,-0.15503 0.330729,-0.28938 0.24288,-0.16537 0.537435,-0.27906 0.341065,-0.13436 0.733806,-0.24804 0.10852,-0.031 0.852661,-0.22221 0.335897,-0.0879 0.63562,-0.21704 0.299723,-0.13436 0.465088,-0.36691 0.165364,-0.23771 0.165364,-0.48059 0,-0.1757 -0.07751,-0.33589 -0.07751,-0.16537 -0.279053,-0.31006 -0.19637,-0.1447 -0.490926,-0.20154 -0.294556,-0.0568 -0.620117,-0.0568 -0.377238,0 -0.707967,0.0517 -0.33073,0.0465 -0.558106,0.11369 -0.227376,0.062 -0.573608,0.20154 z"
         style="font-style:normal;font-variant:normal;font-weight:normal;font-stretch:normal;font-size:10.58333302px;font-family:'Eras Light ITC';-inkscape-font-specification:'Eras Light ITC, Normal';font-variant-ligatures:normal;font-variant-caps:normal;font-variant-numeric:normal;font-feature-settings:normal;text-align:start;writing-mode:lr-tb;text-anchor:start;stroke-width:0.26458332"
         id="path847" />
      <path
         d="m 46.801868,116.32738 0.09302,-1.82935 0.09302,-3.10058 h -0.656291 q 0.02067,-0.13953 0.02584,-0.28939 h 0.640788 q 0.02584,-0.74931 0.04134,-0.8785 0.03101,-0.27389 0.09302,-0.42892 0.06201,-0.16019 0.160197,-0.27388 0.09819,-0.11369 0.258382,-0.20671 0.165365,-0.0982 0.382406,-0.14986 0.217041,-0.0517 0.501261,-0.0517 0.165365,0 0.335897,0.0207 0.1757,0.0207 0.475423,0.0827 0.01033,0.15503 0.04651,0.35657 -0.485759,-0.17054 -0.883667,-0.17054 -0.222209,0 -0.403076,0.062 -0.1757,0.0568 -0.284221,0.13953 -0.10852,0.0827 -0.186035,0.21187 -0.07235,0.1292 -0.10852,0.28423 -0.03617,0.15502 -0.05168,0.45992 0,0.062 -0.0155,0.5426 h 1.539958 q -0.02067,0.13436 -0.02584,0.28939 h -1.524455 l -0.118856,4.92993 q -0.134359,-0.005 -0.217041,-0.005 -0.07751,0 -0.211873,0.005 z"
         style="font-style:normal;font-variant:normal;font-weight:normal;font-stretch:normal;font-size:10.58333302px;font-family:'Eras Light ITC';-inkscape-font-specification:'Eras Light ITC, Normal';font-variant-ligatures:normal;font-variant-caps:normal;font-variant-numeric:normal;font-feature-settings:normal;text-align:start;writing-mode:lr-tb;text-anchor:start;stroke-width:0.26458332"
         id="path849" />
      <path
         d="m 51.463081,116.00182 q -0.04134,0.15503 -0.06201,0.32556 -0.418579,0.10335 -0.769979,0.10335 -0.294556,0 -0.527099,-0.0672 -0.227377,-0.062 -0.372071,-0.22738 -0.144694,-0.17053 -0.191203,-0.37207 -0.04651,-0.2067 -0.04651,-0.43925 0,-0.0413 0,-0.12919 0.0052,-0.0879 0.02067,-0.38757 l 0.170532,-3.42098 h -0.63562 q 0.02067,-0.13953 0.02584,-0.27905 h 0.630452 q 0.02584,-0.32556 0.04134,-0.97152 0.196371,-0.0258 0.341065,-0.0672 -0.03617,0.83716 -0.03617,1.0387 h 1.550293 q -0.02067,0.13952 -0.02584,0.27905 h -1.539958 l -0.170532,3.545 -0.0052,0.21188 q 0,0.43408 0.09819,0.63045 0.103352,0.19637 0.28422,0.28422 0.186035,0.0879 0.382405,0.0879 0.139527,0 0.294556,-0.0207 0.160197,-0.0258 0.542603,-0.12402 z"
         style="font-style:normal;font-variant:normal;font-weight:normal;font-stretch:normal;font-size:10.58333302px;font-family:'Eras Light ITC';-inkscape-font-specification:'Eras Light ITC, Normal';font-variant-ligatures:normal;font-variant-caps:normal;font-variant-numeric:normal;font-feature-settings:normal;text-align:start;writing-mode:lr-tb;text-anchor:start;stroke-width:0.26458332"
         id="path851" />
      <path
         d="m 52.393256,116.32738 0.09302,-1.79834 0.108521,-3.46232 0.02067,-1.0232 q 0.0052,-0.37723 0.0052,-0.76998 1.080037,0.005 2.061889,0.005 l 1.79834,-0.005 q -0.02067,0.20671 -0.02067,0.36691 -0.444418,-0.0362 -1.002523,-0.0413 -0.552938,-0.005 -1.007691,-0.005 h -1.426269 l -0.09302,2.97139 1.100708,0.0155 q 1.405599,0 2.087728,-0.0155 -0.02067,0.14986 -0.02584,0.35657 l -0.919841,-0.0103 q -0.542602,-0.0103 -0.857828,-0.0103 -0.666626,0 -1.405599,0.0207 -0.06201,2.21692 -0.06201,3.40548 -0.129191,-0.005 -0.227376,-0.005 -0.09819,0 -0.227377,0.005 z"
         style="fill:#80cc28;fill-opacity:0.94117647"
         id="path853" />
      <path
         d="m 59.938016,110.99954 q 0.48059,0 0.930175,0.13436 0.449585,0.13435 0.79065,0.45992 0.346232,0.32039 0.527099,0.84232 0.180868,0.52193 0.180868,1.10588 0,0.63045 -0.191203,1.20923 -0.191203,0.57877 -0.542603,0.97151 -0.351399,0.38758 -0.826822,0.54777 -0.470256,0.1602 -1.002523,0.1602 -0.37207,0 -0.733806,-0.0879 -0.356567,-0.0827 -0.671793,-0.28422 -0.310059,-0.20154 -0.54777,-0.52193 -0.232544,-0.3204 -0.356568,-0.75965 -0.118855,-0.43925 -0.118855,-0.91467 0,-0.83199 0.310058,-1.51929 0.310059,-0.69246 0.925008,-1.01802 0.620117,-0.32556 1.328085,-0.32556 z m -0.01034,0.28939 q -0.614949,0 -1.142049,0.29972 -0.527099,0.29972 -0.775146,0.91467 -0.248047,0.61495 -0.248047,1.34876 0,0.51676 0.139526,0.97151 0.144694,0.45476 0.45992,0.76998 0.315227,0.31006 0.676962,0.43408 0.366902,0.11886 0.769978,0.11886 0.459921,0 0.862997,-0.14986 0.403076,-0.14986 0.707967,-0.50126 0.310059,-0.3514 0.454753,-0.863 0.144694,-0.5116 0.144694,-1.0852 0,-0.53227 -0.144694,-0.99736 -0.139527,-0.47026 -0.43925,-0.74931 -0.299723,-0.28422 -0.682129,-0.39791 -0.382406,-0.11368 -0.785482,-0.11368 z"
         style="font-style:normal;font-variant:normal;font-weight:normal;font-stretch:normal;font-size:10.58333302px;font-family:'Eras Light ITC';-inkscape-font-specification:'Eras Light ITC, Normal';font-variant-ligatures:normal;font-variant-caps:normal;font-variant-numeric:normal;font-feature-settings:normal;text-align:start;writing-mode:lr-tb;text-anchor:start;stroke-width:0.26458332"
         id="path855" />
      <path
         d="m 65.891141,110.99954 q 0.48059,0 0.930175,0.13436 0.449585,0.13435 0.79065,0.45992 0.346232,0.32039 0.527099,0.84232 0.180868,0.52193 0.180868,1.10588 0,0.63045 -0.191203,1.20923 -0.191203,0.57877 -0.542603,0.97151 -0.351399,0.38758 -0.826822,0.54777 -0.470256,0.1602 -1.002523,0.1602 -0.37207,0 -0.733806,-0.0879 -0.356567,-0.0827 -0.671793,-0.28422 -0.310059,-0.20154 -0.54777,-0.52193 -0.232544,-0.3204 -0.356568,-0.75965 -0.118855,-0.43925 -0.118855,-0.91467 0,-0.83199 0.310058,-1.51929 0.310059,-0.69246 0.925008,-1.01802 0.620117,-0.32556 1.328085,-0.32556 z m -0.01034,0.28939 q -0.614949,0 -1.142049,0.29972 -0.527099,0.29972 -0.775146,0.91467 -0.248047,0.61495 -0.248047,1.34876 0,0.51676 0.139526,0.97151 0.144694,0.45476 0.45992,0.76998 0.315227,0.31006 0.676962,0.43408 0.366902,0.11886 0.769978,0.11886 0.459921,0 0.862997,-0.14986 0.403076,-0.14986 0.707967,-0.50126 0.310059,-0.3514 0.454753,-0.863 0.144694,-0.5116 0.144694,-1.0852 0,-0.53227 -0.144694,-0.99736 -0.139527,-0.47026 -0.43925,-0.74931 -0.299723,-0.28422 -0.682129,-0.39791 -0.382406,-0.11368 -0.785482,-0.11368 z"
         style="font-style:normal;font-variant:normal;font-weight:normal;font-stretch:normal;font-size:10.58333302px;font-family:'Eras Light ITC';-inkscape-font-specification:'Eras Light ITC, Normal';font-variant-ligatures:normal;font-variant-caps:normal;font-variant-numeric:normal;font-feature-settings:normal;text-align:start;writing-mode:lr-tb;text-anchor:start;stroke-width:0.26458332"
         id="path857" />
      <path
         d="m 73.91649,116.32738 q -0.134358,-0.005 -0.201538,-0.005 -0.07235,0 -0.206705,0.005 l 0.07751,-1.31258 q -0.124023,0.29972 -0.232544,0.47542 -0.103353,0.1757 -0.268717,0.34623 -0.160197,0.16537 -0.392741,0.29972 -0.232544,0.13436 -0.537435,0.21705 -0.304891,0.0827 -0.630452,0.0827 -0.501262,0 -0.940511,-0.18087 -0.434082,-0.18087 -0.738973,-0.5116 -0.299724,-0.33589 -0.434082,-0.76998 -0.129191,-0.43924 -0.129191,-0.925 0,-0.65629 0.242879,-1.26608 0.242879,-0.60978 0.702799,-1.02319 0.465088,-0.41858 1.049032,-0.58911 0.589111,-0.17053 1.240234,-0.17053 0.532267,0 1.16272,0.11369 0.02584,-0.49093 0.02584,-0.94052 0,-0.3979 -0.0155,-0.89917 0.134359,0.005 0.217041,0.005 0.08268,0 0.211873,-0.005 -0.05684,0.96635 -0.08785,2.02572 l -0.07235,2.50114 q -0.04134,1.4366 -0.04134,1.89136 z m -0.253214,-4.85759 q -0.366903,-0.11369 -0.63562,-0.14469 -0.268718,-0.0362 -0.511597,-0.0362 -0.578776,0 -1.105875,0.16536 -0.5271,0.16536 -0.919841,0.53743 -0.392741,0.37208 -0.609782,0.94052 -0.211873,0.56844 -0.211873,1.12137 0,0.60979 0.232544,1.11105 0.237711,0.50126 0.666626,0.74414 0.434082,0.23771 0.966349,0.23771 0.315226,0 0.573608,-0.0724 0.26355,-0.0775 0.470256,-0.21187 0.211873,-0.13436 0.397908,-0.35657 0.191203,-0.22737 0.33073,-0.53227 0.144694,-0.30489 0.211873,-0.66662 0.06718,-0.36174 0.09302,-1.11104 z"
         style="font-style:normal;font-variant:normal;font-weight:normal;font-stretch:normal;font-size:10.58333302px;font-family:'Eras Light ITC';-inkscape-font-specification:'Eras Light ITC, Normal';font-variant-ligatures:normal;font-variant-caps:normal;font-variant-numeric:normal;font-feature-settings:normal;text-align:start;writing-mode:lr-tb;text-anchor:start;stroke-width:0.26458332"
         id="path859" />
      <path
         d="m 83.38878,115.77961 q -0.04134,0.18086 -0.06718,0.42374 -0.5271,0.12919 -0.992187,0.18087 -0.459921,0.0517 -0.826823,0.0517 -0.754476,0 -1.431437,-0.24288 -0.676962,-0.24288 -1.16272,-0.7183 -0.485759,-0.48059 -0.713135,-1.13689 -0.227376,-0.65629 -0.227376,-1.37976 0,-0.80615 0.26355,-1.56062 0.268717,-0.75448 0.780314,-1.25057 0.511596,-0.50127 1.224731,-0.73898 0.718303,-0.24288 1.529622,-0.24288 0.273886,0 0.589112,0.0258 0.320394,0.0258 0.521932,0.0568 0.206705,0.031 0.54777,0.10335 0.01033,0.21187 0.04651,0.44442 -0.568441,-0.18604 -0.981852,-0.24805 -0.408244,-0.062 -0.79065,-0.062 -0.666626,0 -1.281575,0.2067 -0.61495,0.20671 -1.085205,0.66663 -0.470256,0.45475 -0.72347,1.13171 -0.248047,0.6718 -0.248047,1.3901 0,0.69246 0.206705,1.32292 0.206706,0.62528 0.630453,1.04903 0.423747,0.42374 1.00769,0.64595 0.583944,0.21704 1.276408,0.21704 0.852661,0 1.90686,-0.33589 z"
         style="font-style:normal;font-variant:normal;font-weight:normal;font-stretch:normal;font-size:10.58333302px;font-family:'Eras Light ITC';-inkscape-font-specification:'Eras Light ITC, Normal';font-variant-ligatures:normal;font-variant-caps:normal;font-variant-numeric:normal;font-feature-settings:normal;text-align:start;writing-mode:lr-tb;text-anchor:start;stroke-width:0.26458332"
         id="path861" />
      <path
         d="m 84.830554,111.65583 q 0.03617,-0.1757 0.05684,-0.40308 0.5271,-0.14469 0.914673,-0.19637 0.387573,-0.0568 0.785482,-0.0568 0.45992,0 0.852661,0.0827 0.397909,0.0775 0.645955,0.26872 0.253215,0.18603 0.33073,0.42891 0.08268,0.24288 0.08268,0.4961 0,0.25838 -0.02067,0.65629 -0.0155,0.39274 -0.04651,0.84749 -0.03101,0.45475 -0.05684,1.13688 -0.02584,0.67696 -0.02584,0.97669 v 0.43408 q -0.134358,-0.005 -0.217041,-0.005 -0.08785,0 -0.217041,0.005 0.07235,-0.79065 0.09819,-1.28158 0.03101,-0.49092 0.04651,-1.0542 0.02067,-0.56844 0.05168,-1.05936 -0.160197,0.13435 -0.248047,0.20153 -0.08268,0.062 -0.186035,0.11369 -0.09819,0.0517 -0.24288,0.10852 -0.139526,0.0517 -0.258382,0.093 -0.118856,0.0362 -0.578776,0.1602 -0.454752,0.12402 -0.651123,0.18603 -0.444417,0.1447 -0.687296,0.27389 -0.26355,0.13952 -0.43925,0.31006 -0.155029,0.14986 -0.227376,0.31522 -0.08268,0.19637 -0.08268,0.41858 0,0.3359 0.201539,0.58394 0.201538,0.24805 0.506429,0.3514 0.310058,0.0982 0.74414,0.0982 0.217041,0 0.418579,-0.0207 0.201538,-0.0258 0.377238,-0.062 0.180868,-0.0413 0.516764,-0.14986 -0.04651,0.19637 -0.07751,0.39274 -0.418579,0.0827 -0.682129,0.10335 -0.258382,0.0258 -0.490926,0.0258 -0.434082,0 -0.800985,-0.0672 -0.366902,-0.0672 -0.614949,-0.26355 -0.248047,-0.19637 -0.366903,-0.45475 -0.118856,-0.25839 -0.118856,-0.54261 0,-0.21704 0.07235,-0.41858 0.07235,-0.2067 0.222209,-0.39274 0.124023,-0.15503 0.330729,-0.28938 0.242879,-0.16537 0.537435,-0.27906 0.341064,-0.13436 0.733805,-0.24804 0.108521,-0.031 0.852661,-0.22221 0.335897,-0.0879 0.63562,-0.21704 0.299724,-0.13436 0.465088,-0.36691 0.165365,-0.23771 0.165365,-0.48059 0,-0.1757 -0.07751,-0.33589 -0.07751,-0.16537 -0.279053,-0.31006 -0.19637,-0.1447 -0.490926,-0.20154 -0.294555,-0.0568 -0.620117,-0.0568 -0.377238,0 -0.707967,0.0517 -0.330729,0.0465 -0.558105,0.11369 -0.227377,0.062 -0.573609,0.20154 z"
         style="font-style:normal;font-variant:normal;font-weight:normal;font-stretch:normal;font-size:10.58333302px;font-family:'Eras Light ITC';-inkscape-font-specification:'Eras Light ITC, Normal';font-variant-ligatures:normal;font-variant-caps:normal;font-variant-numeric:normal;font-feature-settings:normal;text-align:start;writing-mode:lr-tb;text-anchor:start;stroke-width:0.26458332"
         id="path863" />
      <path
         d="m 91.915393,116.00182 q -0.04134,0.15503 -0.06201,0.32556 -0.418579,0.10335 -0.769978,0.10335 -0.294556,0 -0.5271,-0.0672 -0.227376,-0.062 -0.37207,-0.22738 -0.144694,-0.17053 -0.191203,-0.37207 -0.04651,-0.2067 -0.04651,-0.43925 0,-0.0413 0,-0.12919 0.0052,-0.0879 0.02067,-0.38757 l 0.170532,-3.42098 h -0.63562 q 0.02067,-0.13953 0.02584,-0.27905 h 0.630452 q 0.02584,-0.32556 0.04134,-0.97152 0.19637,-0.0258 0.341064,-0.0672 -0.03617,0.83716 -0.03617,1.0387 h 1.550292 q -0.02067,0.13952 -0.02584,0.27905 h -1.539957 l -0.170533,3.545 -0.0052,0.21188 q 0,0.43408 0.09819,0.63045 0.103353,0.19637 0.28422,0.28422 0.186035,0.0879 0.382406,0.0879 0.139526,0 0.294556,-0.0207 0.160197,-0.0258 0.542602,-0.12402 z"
         style="font-style:normal;font-variant:normal;font-weight:normal;font-stretch:normal;font-size:10.58333302px;font-family:'Eras Light ITC';-inkscape-font-specification:'Eras Light ITC, Normal';font-variant-ligatures:normal;font-variant-caps:normal;font-variant-numeric:normal;font-feature-settings:normal;text-align:start;writing-mode:lr-tb;text-anchor:start;stroke-width:0.26458332"
         id="path865" />
      <path
         d="m 96.633451,115.82612 q -0.04134,0.1912 -0.06201,0.38757 -0.428915,0.12402 -0.769979,0.17053 -0.341065,0.0517 -0.697632,0.0517 -0.620117,0 -1.100708,-0.16537 -0.475423,-0.17053 -0.816488,-0.5581 -0.341064,-0.39274 -0.485758,-0.8785 -0.144694,-0.48576 -0.144694,-1.03353 0,-0.7183 0.248047,-1.34359 0.248047,-0.63045 0.816487,-1.04386 0.568441,-0.41341 1.410767,-0.41341 0.578776,0 1.049032,0.21704 0.470255,0.21187 0.728637,0.69763 0.26355,0.48576 0.26355,1.15238 0,0.12403 -0.01033,0.23772 l -4.087606,0.005 q -0.02584,0.3359 -0.02584,0.50643 0,0.49093 0.144694,0.95085 0.144694,0.45992 0.434082,0.76998 0.294555,0.31006 0.702799,0.45992 0.408244,0.14986 0.862997,0.14986 0.692464,0 1.539957,-0.32039 z m -3.612182,-2.80087 3.674194,0.005 q -0.0052,-0.35657 -0.04134,-0.54777 -0.03617,-0.1912 -0.134359,-0.39274 -0.09819,-0.20154 -0.237711,-0.34623 -0.134359,-0.14986 -0.320394,-0.24805 -0.180868,-0.10335 -0.408244,-0.15503 -0.227376,-0.0517 -0.475423,-0.0517 -0.273885,0 -0.537435,0.062 -0.26355,0.062 -0.480591,0.17053 -0.217041,0.10852 -0.408244,0.27905 -0.186035,0.16537 -0.310058,0.36174 -0.118856,0.19637 -0.186035,0.37723 -0.06201,0.1757 -0.134359,0.48576 z"
         style="font-style:normal;font-variant:normal;font-weight:normal;font-stretch:normal;font-size:10.58333302px;font-family:'Eras Light ITC';-inkscape-font-specification:'Eras Light ITC, Normal';font-variant-ligatures:normal;font-variant-caps:normal;font-variant-numeric:normal;font-feature-settings:normal;text-align:start;writing-mode:lr-tb;text-anchor:start;stroke-width:0.26458332"
         id="path867" />
      <path
         d="m 98.028715,116.32738 q 0.06201,-1.09038 0.118856,-2.56315 0.05684,-1.47278 0.05684,-2.19108 l -0.0052,-0.46509 q 0.103353,0.005 0.191203,0.005 0.09302,0 0.191203,-0.005 l -0.04651,0.97668 q 0.1757,-0.3514 0.325562,-0.53226 0.149861,-0.18087 0.346232,-0.29973 0.201538,-0.12402 0.465088,-0.18603 0.268717,-0.0672 0.558104,-0.0672 0.21187,0 0.42892,0.0517 0,0.1757 0.0207,0.3514 -0.34624,-0.0878 -0.59945,-0.0878 -0.248047,0 -0.449586,0.0672 -0.19637,0.0672 -0.37207,0.19637 -0.170532,0.12919 -0.335897,0.35657 -0.165364,0.22221 -0.248047,0.47542 -0.103352,0.29456 -0.139526,0.71831 -0.05684,0.66145 -0.07235,1.50895 -0.02067,1.14205 -0.02067,1.68982 -0.134359,-0.005 -0.206706,-0.005 -0.07235,0 -0.206706,0.005 z"
         style="font-style:normal;font-variant:normal;font-weight:normal;font-stretch:normal;font-size:10.58333302px;font-family:'Eras Light ITC';-inkscape-font-specification:'Eras Light ITC, Normal';font-variant-ligatures:normal;font-variant-caps:normal;font-variant-numeric:normal;font-feature-settings:normal;text-align:start;writing-mode:lr-tb;text-anchor:start;stroke-width:0.26458332"
         id="path869" />
      <path
         d="m 101.61506,109.78514 0.0155,-0.5116 q 0.1292,0.005 0.26355,0.005 0.13436,0 0.26355,-0.005 l -0.0155,0.5116 q -0.12919,-0.0103 -0.26355,-0.0103 -0.13436,0 -0.26355,0.0103 z m -0.18603,6.54224 q 0.0568,-0.77515 0.12919,-2.70268 0.0775,-1.92753 0.0775,-2.51664 0.13436,0.005 0.20671,0.005 0.0775,0 0.21187,-0.005 -0.0724,0.98185 -0.14469,2.67684 -0.0672,1.69498 -0.0672,2.54248 -0.13436,-0.005 -0.20671,-0.005 -0.0723,0 -0.2067,0.005 z"
         style="font-style:normal;font-variant:normal;font-weight:normal;font-stretch:normal;font-size:10.58333302px;font-family:'Eras Light ITC';-inkscape-font-specification:'Eras Light ITC, Normal';font-variant-ligatures:normal;font-variant-caps:normal;font-variant-numeric:normal;font-feature-settings:normal;text-align:start;writing-mode:lr-tb;text-anchor:start;stroke-width:0.26458332"
         id="path871" />
      <path
         d="m 103.34105,116.32738 0.1757,-3.15743 0.0465,-1.48312 q 0.0103,-0.3979 0.0103,-0.57877 0.13436,0.005 0.20154,0.005 0.062,0 0.19637,-0.005 l -0.0672,1.17822 q 0.11369,-0.24288 0.18603,-0.3669 0.0775,-0.12919 0.20671,-0.27389 0.12919,-0.14469 0.30489,-0.26871 0.18087,-0.1292 0.42891,-0.21188 0.25322,-0.0879 0.51677,-0.12402 0.26355,-0.0413 0.52193,-0.0413 0.43408,0 0.84233,0.0982 0.40824,0.0982 0.67696,0.34107 0.26871,0.23771 0.3669,0.55293 0.10335,0.31006 0.10335,0.66663 0,0.1602 -0.0155,0.47542 l -0.10852,2.35128 -0.0207,0.84233 q -0.10335,-0.005 -0.20154,-0.005 -0.0982,0 -0.19637,0.005 0.0517,-0.64596 0.0827,-1.23507 l 0.0724,-1.32292 q 0.0413,-0.7338 0.0413,-1.05936 0,-0.34107 -0.0982,-0.60978 -0.0982,-0.26872 -0.34107,-0.44442 -0.23771,-0.18087 -0.56844,-0.25838 -0.33073,-0.0827 -0.68213,-0.0827 -0.49092,0 -0.86816,0.13436 -0.35657,0.12919 -0.62529,0.38241 -0.26871,0.24804 -0.43925,0.63045 -0.12919,0.27905 -0.19637,0.78031 -0.062,0.43409 -0.10335,1.42111 -0.0362,0.98185 -0.0362,1.66398 -0.13436,-0.005 -0.20671,-0.005 -0.0724,0 -0.20671,0.005 z"
         style="font-style:normal;font-variant:normal;font-weight:normal;font-stretch:normal;font-size:10.58333302px;font-family:'Eras Light ITC';-inkscape-font-specification:'Eras Light ITC, Normal';font-variant-ligatures:normal;font-variant-caps:normal;font-variant-numeric:normal;font-feature-settings:normal;text-align:start;writing-mode:lr-tb;text-anchor:start;stroke-width:0.26458332"
         id="path873" />
      <path
         d="m 109.68175,118.21357 q 0.68213,0.19637 1.12655,0.26355 0.44441,0.0672 0.81648,0.0672 0.43925,0 0.81649,-0.11369 0.34623,-0.0982 0.58911,-0.27389 0.21704,-0.16019 0.3359,-0.35656 0.13953,-0.23255 0.20671,-0.57878 0.0723,-0.34623 0.0878,-0.74414 0.0362,-0.64079 0.0517,-1.44694 -0.10335,0.24805 -0.18087,0.39274 -0.0723,0.13953 -0.2067,0.29972 -0.13436,0.15503 -0.31523,0.28422 -0.1757,0.12403 -0.40824,0.22738 -0.22738,0.0982 -0.50643,0.15503 -0.27905,0.0568 -0.57878,0.0568 -0.48059,0 -0.894,-0.12402 -0.40824,-0.12402 -0.7338,-0.41858 -0.3204,-0.29456 -0.48576,-0.75448 -0.16537,-0.46508 -0.16537,-0.97668 0,-0.69763 0.24805,-1.33842 0.24805,-0.64079 0.7028,-1.0542 0.45992,-0.41858 1.05937,-0.59945 0.59944,-0.18086 1.29707,-0.18086 0.70797,0 1.71566,0.18086 l -0.0517,0.59428 q -0.0155,0.17054 -0.031,0.44442 l -0.11886,2.36678 -0.0568,2.16524 q -0.0207,0.38758 -0.10335,0.6873 -0.0879,0.32039 -0.26872,0.57361 -0.18087,0.25321 -0.45475,0.42891 -0.27389,0.1757 -0.69247,0.27906 -0.45475,0.11368 -1.02319,0.11368 -0.41858,0 -0.81649,-0.0465 -0.39791,-0.0414 -0.92501,-0.16537 -0.0103,-0.21187 -0.0362,-0.40824 z m 4.16512,-6.79029 q -0.49093,-0.093 -0.78548,-0.11368 -0.29456,-0.0207 -0.52193,-0.0207 -0.59428,0 -1.10071,0.13435 -0.50643,0.13436 -0.93018,0.50643 -0.41858,0.37207 -0.65112,0.95602 -0.23254,0.58394 -0.23254,1.20923 0,0.59944 0.21187,1.0852 0.21704,0.48576 0.66663,0.73381 0.45475,0.24288 1.00252,0.24288 0.37207,0 0.69246,-0.0827 0.24805,-0.062 0.46509,-0.19637 0.22221,-0.13952 0.42375,-0.3669 0.20154,-0.22738 0.3514,-0.53227 0.15503,-0.31006 0.22221,-0.63045 0.0879,-0.44958 0.12402,-1.15238 z"
         style="font-style:normal;font-variant:normal;font-weight:normal;font-stretch:normal;font-size:10.58333302px;font-family:'Eras Light ITC';-inkscape-font-specification:'Eras Light ITC, Normal';font-variant-ligatures:normal;font-variant-caps:normal;font-variant-numeric:normal;font-feature-settings:normal;text-align:start;writing-mode:lr-tb;text-anchor:start;stroke-width:0.26458332"
         id="path875" />
    </g>
  </g>
</svg>
